<?xml version="1.0" encoding="UTF-8" standalone="no"?>
<svg
   xmlns:dc="http://purl.org/dc/elements/1.1/"
   xmlns:cc="http://creativecommons.org/ns#"
   xmlns:rdf="http://www.w3.org/1999/02/22-rdf-syntax-ns#"
   xmlns:svg="http://www.w3.org/2000/svg"
   xmlns="http://www.w3.org/2000/svg"
   xmlns:sodipodi="http://sodipodi.sourceforge.net/DTD/sodipodi-0.dtd"
   xmlns:inkscape="http://www.inkscape.org/namespaces/inkscape"
   width="75mm"
   height="50mm"
   viewBox="0 0 75 50"
   version="1.1"
   id="svg8"
   inkscape:version="1.0.1 (3bc2e813f5, 2020-09-07)"
   sodipodi:docname="Party Popper.svg">
  <defs
     id="defs2">
    <rect
       x="32.072342"
       y="80.314491"
       width="44.610668"
       height="24.794481"
       id="rect855" />
    <rect
       x="35.814117"
       y="82.586281"
       width="37.007549"
       height="10.584055"
       id="rect843" />
    <rect
       x="36.285713"
       y="69.547623"
       width="149.67857"
       height="114.14881"
       id="rect835" />
  </defs>
  <sodipodi:namedview
     id="base"
     pagecolor="#ffffff"
     bordercolor="#666666"
     borderopacity="1.0"
     inkscape:pageopacity="0.0"
     inkscape:pageshadow="2"
     inkscape:zoom="3.959798"
     inkscape:cx="168.2844"
     inkscape:cy="104.15876"
     inkscape:document-units="mm"
     inkscape:current-layer="layer1"
     inkscape:document-rotation="0"
     showgrid="false"
     inkscape:window-width="1920"
     inkscape:window-height="1017"
     inkscape:window-x="1912"
     inkscape:window-y="-8"
     inkscape:window-maximized="1" />
  <metadata
     id="metadata5">
    <rdf:RDF>
      <cc:Work
         rdf:about="">
        <dc:format>image/svg+xml</dc:format>
        <dc:type
           rdf:resource="http://purl.org/dc/dcmitype/StillImage" />
        <dc:title></dc:title>
      </cc:Work>
    </rdf:RDF>
  </metadata>
  <g
     inkscape:label="Layer 1"
     inkscape:groupmode="layer"
     id="layer1">
    <g
       aria-label="Party"
       transform="translate(-16.271595,-54.291003)"
       id="text833"
       style="font-style:normal;font-variant:normal;font-weight:normal;font-stretch:normal;font-size:10.5833px;line-height:1.25;font-family:'Showcard Gothic';-inkscape-font-specification:'Showcard Gothic';white-space:pre;shape-inside:url(#rect835);fill:none;fill-opacity:1;stroke:#000000;stroke-width:0.079375;stroke-miterlimit:4;stroke-dasharray:none;stroke-opacity:1">
      <path
         d="m 43.194273,74.502629 q 0,1.467606 -0.940508,2.35127 -0.93534,0.878497 -2.485628,0.878497 l -0.06201,1.576126 H 36.858763 L 36.708902,75.45864 q -0.06718,-1.488276 -0.211873,-4.087593 0.80615,-0.160196 2.361605,-0.160196 1.896519,0 3.038565,0.759641 1.297074,0.862994 1.297074,2.532137 z m -2.144565,0.868161 q 0,-0.806149 -0.956011,-0.806149 -0.113688,0 -0.232543,0.0155 l -0.05168,1.80867 q 1.24023,-0.04134 1.24023,-1.018023 z"
         style="font-style:normal;font-variant:normal;font-weight:normal;font-stretch:normal;font-family:'Showcard Gothic';-inkscape-font-specification:'Showcard Gothic';fill:none;stroke:#000000;stroke-width:0.079375;stroke-miterlimit:4;stroke-dasharray:none;stroke-opacity:1"
         id="path877" />
      <path
         d="M 49.855344,79.308522 H 47.028652 L 46.83745,78.621228 q -0.118855,0.04651 -0.594277,0.315225 -0.30489,0.19637 -0.676959,0.52193 L 45.271659,78.8331 q -0.08785,-0.186034 -0.253214,-0.52193 l -0.279051,0.997352 h -1.498612 q 0.330728,-1.276404 1.02319,-4.211616 0.423745,-1.963698 0.707965,-3.725859 h 3.105744 q 0.144693,0.811318 0.790646,3.777535 0.356567,1.550288 0.987017,4.15994 z M 46.594572,77.61354 q -0.08785,-0.273884 -0.310058,-0.888831 -0.134358,-0.341064 -0.408242,-0.940508 -0.118856,0.299722 -0.37207,0.981849 -0.139526,0.392739 -0.330728,1.069698 0.155029,0 0.702798,-0.06201 0.330728,-0.04651 0.7183,-0.160197 z"
         style="font-style:normal;font-variant:normal;font-weight:normal;font-stretch:normal;font-family:'Showcard Gothic';-inkscape-font-specification:'Showcard Gothic';fill:none;stroke:#000000;stroke-width:0.079375;stroke-miterlimit:4;stroke-dasharray:none;stroke-opacity:1"
         id="path879" />
      <path
         d="m 56.986669,74.342433 q 0,0.950843 -0.532265,1.684646 -0.470254,0.640786 -1.178219,0.919838 0.149861,0.232543 0.738971,0.976681 0.294554,0.341063 0.899167,0.899167 -0.242879,0.08785 -1.069699,0.444416 -0.578774,0.263549 -1.090369,0.516763 -0.149862,-0.186035 -0.666624,-0.961179 -0.237711,-0.39274 -0.69763,-1.322912 h -0.01033 l -0.05168,1.808669 h -2.909374 q -0.05684,-1.126543 -0.160197,-3.715524 -0.04651,-1.52445 -0.211872,-4.221951 1.421097,-0.149861 2.594148,-0.149861 4.345974,0 4.345973,3.121247 z m -2.346102,1.116207 q 0,-0.490925 -0.41341,-0.702797 -0.30489,-0.155029 -0.764809,-0.134359 l -0.03101,1.767329 q 0.428913,0 0.764809,-0.191202 0.444416,-0.248046 0.444416,-0.738971 z"
         style="font-style:normal;font-variant:normal;font-weight:normal;font-stretch:normal;font-family:'Showcard Gothic';-inkscape-font-specification:'Showcard Gothic';fill:none;stroke:#000000;stroke-width:0.079375;stroke-miterlimit:4;stroke-dasharray:none;stroke-opacity:1"
         id="path881" />
      <path
         d="m 63.596065,71.371047 -0.149861,3.250437 q -0.201538,-0.031 -0.645953,-0.07751 -0.273885,-0.0155 -0.888832,-0.03101 -0.03101,0.30489 -0.10852,1.472774 -0.05684,1.13171 -0.186035,3.322784 h -2.501131 q -0.04134,-1.043861 -0.155029,-3.281443 -0.05168,-0.775144 -0.10852,-1.514115 l -0.816485,0.03101 -0.738971,0.07751 -0.129191,-3.250437 z"
         style="font-style:normal;font-variant:normal;font-weight:normal;font-stretch:normal;font-family:'Showcard Gothic';-inkscape-font-specification:'Showcard Gothic';fill:none;stroke:#000000;stroke-width:0.079375;stroke-miterlimit:4;stroke-dasharray:none;stroke-opacity:1"
         id="path883" />
      <path
         d="m 71.052949,71.371047 -0.971513,1.798334 q -0.39274,0.738971 -1.059364,2.067051 -0.06201,0.723468 -0.160196,2.051548 -0.03101,0.707965 -0.103353,2.020542 h -2.645825 q -0.02067,-0.640786 -0.09302,-2.051548 -0.04134,-0.532265 -0.191202,-2.020542 -0.268717,-0.552936 -0.899167,-1.793166 -0.408243,-0.754474 -1.188555,-2.072219 h 3.813709 q 0.09302,0.335896 0.325561,1.059364 l 0.496092,1.395259 q 0.196369,-0.475422 0.532265,-1.405595 0.113688,-0.366901 0.294555,-1.049028 z"
         style="font-style:normal;font-variant:normal;font-weight:normal;font-stretch:normal;font-family:'Showcard Gothic';-inkscape-font-specification:'Showcard Gothic';fill:none;stroke:#000000;stroke-width:0.079375;stroke-miterlimit:4;stroke-dasharray:none;stroke-opacity:1"
         id="path885" />
    </g>
    <path
       sodipodi:type="star"
       style="opacity:0.403226;fill:none;stroke:#000000;stroke-width:0.118636;stroke-linejoin:round;stroke-miterlimit:4;stroke-dasharray:none;stroke-opacity:1"
       id="path839"
       sodipodi:sides="10"
       sodipodi:cx="50.914841"
       sodipodi:cy="88.466217"
       sodipodi:r1="32.991432"
       sodipodi:r2="22.032125"
       sodipodi:arg1="-0.11743243"
       sodipodi:arg2="0.19672683"
       inkscape:flatsided="false"
       inkscape:rounded="0"
       inkscape:randomized="0"
       d="m 83.679052,84.600851 -11.15705,8.171773 7.171647,11.824766 -13.82949,0.0532 -1.148439,13.78183 -11.219536,-8.08577 -9.02986,10.4747 -4.3241,-13.1362 -13.462182,3.16658 L 30.903038,97.682631 18.150629,92.331583 29.30768,84.15981 22.136032,72.335043 35.965523,72.28189 37.113961,58.500064 48.333497,66.585833 57.363358,56.111137 61.687457,69.247339 75.14964,66.08075 70.926644,79.249803 Z"
       transform="matrix(0.99090818,-0.08091085,0.18356716,0.43676237,-29.175527,-9.271867)" />
    <text
       xml:space="preserve"
       id="text841"
       style="font-style:normal;font-weight:normal;font-size:10.5833px;line-height:1.25;font-family:sans-serif;white-space:pre;shape-inside:url(#rect843);fill:#000000;fill-opacity:1;stroke:none;"><tspan
         style="visibility:hidden"
         x="35.814453"
         y="102.82539"><tspan
           dx="0 6.1236377 6.4233594 6.5938911 6.5938931 6.3045025">Popper</tspan></tspan></text>
    <g
       aria-label="POPPER"
       transform="matrix(0.84736664,0,0,0.80394488,-6.3749455,-39.002964)"
       id="text853"
       style="font-style:normal;font-variant:normal;font-weight:normal;font-stretch:normal;font-size:5.64444px;line-height:1.25;font-family:'Copperplate Gothic Bold';-inkscape-font-specification:'Copperplate Gothic Bold, ';white-space:pre;shape-inside:url(#rect855);fill:none;fill-opacity:1;stroke:#000000;stroke-width:0.096169;stroke-miterlimit:4;stroke-dasharray:none;stroke-opacity:1">
      <path
         d="m 34.218561,85.562742 q 0,0.217041 -0.02894,0.651123 -0.01447,0.212218 -0.01447,0.429259 0,0.163986 0.01447,0.709001 0.01929,0.540191 0.06752,0.675238 0.05305,0.135048 0.221864,0.26045 0.173633,0.125401 0.371381,0.135047 0.221864,0.01447 0.221864,0.101286 0,0.06752 -0.06752,0.08199 -0.06752,0.0096 -0.511253,0.0096 l -1.326362,-0.0048 q -0.559483,0 -0.598068,-0.01447 -0.03376,-0.01929 -0.03376,-0.06752 0,-0.07717 0.183279,-0.115755 0.32315,-0.07235 0.448551,-0.226687 0.130225,-0.15434 0.159164,-0.66077 0.02894,-0.511252 0.02894,-1.176845 l -0.01447,-1.287776 0.01447,-1.389063 q 0,-0.73794 -0.101285,-0.940512 -0.101286,-0.207394 -0.395497,-0.260449 -0.318327,-0.05788 -0.318327,-0.139871 0,-0.08199 0.144694,-0.08199 l 0.95498,0.0048 1.533757,-0.0096 q 1.514465,0 2.035363,0.472667 0.525722,0.472667 0.525722,1.181668 0,0.844049 -0.684885,1.268484 -0.684885,0.424436 -2.059479,0.424436 -0.332796,0 -0.771701,-0.02894 z m 0,-0.192926 q 0.709,0.02412 0.805463,0.02412 0.49196,0 0.926042,-0.16881 0.434082,-0.16881 0.631831,-0.607715 0.202571,-0.438905 0.202571,-0.868164 0,-0.545014 -0.371381,-0.921219 Q 36.046529,82.447 35.086725,82.447 q -0.496783,0 -0.868164,0.106109 -0.0048,0.173633 -0.0048,0.217042 l 0.01929,1.109321 -0.01929,1.181668 q 0,0.08682 0.0048,0.30868 z"
         style="font-style:normal;font-variant:normal;font-weight:normal;font-stretch:normal;font-size:9.87778px;font-family:'Bell MT';-inkscape-font-specification:'Bell MT';fill:none;stroke:#000000;stroke-width:0.096169;stroke-miterlimit:4;stroke-dasharray:none;stroke-opacity:1"
         id="path864" />
      <path
         d="m 38.695779,86.320853 q -0.185101,-0.624258 -0.02667,-1.481176 0.157058,-0.861542 0.739081,-1.562343 0.586645,-0.702173 1.502225,-0.973655 1.280886,-0.379801 2.384712,0.288977 1.108451,0.667407 1.456716,1.841938 0.370203,1.248517 -0.259832,2.51693 -0.631408,1.263791 -1.930791,1.649076 -1.243894,0.368832 -2.347881,-0.249591 -1.099365,-0.619793 -1.517557,-2.030156 z m 0.987307,-0.453732 q 0.223493,0.753734 0.690533,1.48053 0.465669,0.722171 1.067399,0.936145 0.60036,0.209348 1.164504,0.04207 0.910956,-0.270111 1.19472,-1.315113 0.287017,-1.050999 -0.05851,-2.216281 -0.334554,-1.12829 -1.146362,-1.813226 -0.813178,-0.68956 -1.714884,-0.422191 -0.679749,0.201555 -0.997173,0.793714 -0.318796,0.587537 -0.339039,1.282744 -0.02024,0.695207 0.138808,1.231607 z"
         style="font-style:normal;font-variant:normal;font-weight:normal;font-stretch:normal;font-size:9.87778px;font-family:'Bell MT';-inkscape-font-specification:'Bell MT';fill:none;stroke:#000000;stroke-width:0.096169;stroke-miterlimit:4;stroke-dasharray:none;stroke-opacity:1"
         id="path866" />
      <path
         d="m 47.482533,85.451949 q -0.02601,0.215476 -0.106773,0.64296 -0.0398,0.208954 -0.06582,0.42443 -0.01966,0.162804 -0.07061,0.705624 -0.0456,0.538609 -0.0139,0.678463 0.03649,0.140435 0.189049,0.285165 0.157351,0.145308 0.352517,0.178586 0.218531,0.04096 0.208125,0.127148 -0.0081,0.06703 -0.07686,0.07331 -0.06818,0.0014 -0.508717,-0.05175 l -1.316225,-0.16374 q -0.555451,-0.06706 -0.592024,-0.08605 -0.0312,-0.0232 -0.02542,-0.07108 0.0092,-0.07661 0.195831,-0.09295 0.329494,-0.0331 0.472489,-0.17129 0.147785,-0.137619 0.237214,-0.63693 0.09001,-0.504098 0.169785,-1.164892 l 0.139984,-1.280227 0.180855,-1.377315 q 0.08845,-0.732621 0.01217,-0.945872 -0.0757,-0.218039 -0.361429,-0.305975 -0.309095,-0.09562 -0.299268,-0.177017 0.0098,-0.0814 0.153479,-0.06406 l 0.947521,0.119227 1.523851,0.174302 q 1.503546,0.18152 1.964037,0.713213 0.465279,0.532271 0.3803,1.236161 -0.101165,0.837965 -0.831986,1.177251 -0.730819,0.339288 -2.095503,0.174532 -0.330397,-0.03989 -0.76267,-0.121225 z m 0.02312,-0.191536 q 0.700998,0.108926 0.796766,0.120487 0.488414,0.05897 0.939599,-0.0566 0.451186,-0.115565 0.700115,-0.527604 0.253718,-0.411461 0.305168,-0.837626 0.06532,-0.541085 -0.258289,-0.959091 -0.318248,-0.422216 -1.271131,-0.537255 -0.493202,-0.05954 -0.874625,0.0013 -0.02558,0.171806 -0.03078,0.214902 l -0.11381,1.103636 -0.160783,1.170837 q -0.01041,0.08619 -0.03223,0.30703 z"
         style="font-style:normal;font-variant:normal;font-weight:normal;font-stretch:normal;font-size:9.87778px;font-family:'Bell MT';-inkscape-font-specification:'Bell MT';fill:none;stroke:#000000;stroke-width:0.096169;stroke-miterlimit:4;stroke-dasharray:none;stroke-opacity:1"
         id="path868" />
      <path
         d="m 53.589149,85.680655 q 0.02819,0.215202 0.05588,0.649365 0.01322,0.2123 0.04141,0.427502 0.0213,0.162597 0.106444,0.701114 0.08929,0.533109 0.154658,0.660747 0.07015,0.127011 0.253816,0.229424 0.188451,0.101784 0.385778,0.08566 0.221864,-0.01447 0.233141,0.07161 0.0088,0.06695 -0.0563,0.09007 -0.0657,0.01829 -0.505674,0.07593 l -1.315748,0.16753 q -0.554743,0.07268 -0.594881,0.06334 -0.03598,-0.01474 -0.04225,-0.06256 -0.01002,-0.07652 0.16669,-0.138582 0.311015,-0.113713 0.415306,-0.283032 0.109073,-0.169948 0.07198,-0.675846 -0.03771,-0.51068 -0.124173,-1.170633 L 52.653618,85.2973 52.487531,83.918126 q -0.09586,-0.731688 -0.222597,-0.919387 -0.127368,-0.19248 -0.425978,-0.206869 -0.323148,-0.01604 -0.333798,-0.09734 -0.01065,-0.0813 0.132818,-0.100091 l 0.947513,-0.119289 1.519515,-0.208748 q 1.501633,-0.196723 2.079517,0.204276 0.582664,0.400373 0.674761,1.103367 0.109639,0.836898 -0.514311,1.346701 -0.62395,0.509804 -1.986897,0.688359 -0.329977,0.04323 -0.768923,0.07155 z m -0.02506,-0.191292 q 0.706127,-0.06818 0.801773,-0.08071 0.487791,-0.0639 0.896267,-0.287669 0.408478,-0.223766 0.547538,-0.684639 0.143844,-0.461499 0.08808,-0.887122 -0.07079,-0.540396 -0.487898,-0.865173 -0.412946,-0.330185 -1.364619,-0.20551 -0.492574,0.06453 -0.847025,0.217981 0.01779,0.172786 0.02343,0.215827 l 0.163223,1.097417 0.134368,1.174162 q 0.01128,0.08608 0.04486,0.305441 z"
         style="font-style:normal;font-variant:normal;font-weight:normal;font-stretch:normal;font-size:9.87778px;font-family:'Bell MT';-inkscape-font-specification:'Bell MT';fill:none;stroke:#000000;stroke-width:0.096169;stroke-miterlimit:4;stroke-dasharray:none;stroke-opacity:1"
         id="path870" />
      <path
         d="m 63.686689,83.009158 q 0.005,0.557983 -0.09967,1.535984 -0.03273,0.0316 -0.06081,0.0246 -0.03276,-0.0082 -0.06087,-0.05494 -0.193378,-0.599981 -0.420526,-0.944928 -0.227146,-0.344948 -0.49865,-0.531948 -0.265656,-0.190514 -0.99103,-0.37139 -0.683257,-0.170374 -1.100881,-0.19001 -0.04911,0.03746 -0.08062,0.163817 -0.0082,0.03276 -0.03849,0.114674 -0.140153,0.362718 -0.55325,2.01938 -0.0175,0.0702 -0.0397,0.198876 0.352166,0.102728 0.483202,0.135402 0.589659,0.147035 0.894908,0.03923 0.311093,-0.111318 0.652348,-0.642606 0.05726,-0.09011 0.1181,-0.07494 0.08892,0.02217 0.05508,0.157887 l -0.06539,0.182526 q -0.129632,0.360371 -0.227655,0.753477 -0.158704,0.636457 -0.262497,1.152395 -0.03968,0.159115 -0.128594,0.136943 -0.06551,-0.01634 -0.06091,-0.134489 0.03942,-0.576726 -0.213446,-0.898263 -0.252868,-0.321537 -1.301151,-0.582932 -0.09923,0.338128 -0.289439,1.100941 -0.246225,0.987446 -0.24254,1.271701 0.0037,0.284256 0.230756,0.509886 0.228242,0.22095 0.864699,0.379654 1.820457,0.453941 2.662019,-0.668391 0.104023,-0.138099 0.174225,-0.120594 0.07488,0.01867 0.0492,0.121627 -0.014,0.05616 -0.05374,0.115841 -0.05025,0.08192 -0.301421,0.630695 -0.05373,0.115843 -0.359876,0.685711 L 60.46038,88.731368 Q 60.039194,88.626343 59.229557,88.384694 58.423434,88.14889 57.792822,87.986676 57.165723,87.830305 57.143481,87.7999 q -0.02225,-0.03041 -0.01525,-0.05848 0.02334,-0.0936 0.177772,-0.05509 0.519462,0.129531 0.752106,-0.105736 0.232644,-0.235268 0.498707,-1.302271 l 0.234566,-0.960527 0.238093,-0.895028 q 0.06768,-0.271431 0.222803,-1.033053 0.160965,-0.765135 0.159724,-0.879774 0.0034,-0.113472 -0.09256,-0.246768 -0.09016,-0.136809 -0.470462,-0.345969 -0.113508,-0.0631 -0.096,-0.133297 0.02101,-0.08424 0.1848,-0.0434 l 0.941851,0.28953 q 0.499587,0.149433 2.479158,0.64305 1.300995,0.32441 1.327913,0.336069 z"
         style="font-style:normal;font-variant:normal;font-weight:normal;font-stretch:normal;font-size:9.87778px;font-family:'Bell MT';-inkscape-font-specification:'Bell MT';fill:none;stroke:#000000;stroke-width:0.096169;stroke-miterlimit:4;stroke-dasharray:none;stroke-opacity:1"
         id="path872" />
      <path
         d="m 67.969281,85.309566 q 0.700896,0.188423 1.005302,0.465015 0.303697,0.27182 0.52485,0.906984 0.2898,0.834636 0.619995,1.087891 0.329486,0.248486 0.795085,0.198809 0.130222,-0.0096 0.142988,0.07627 0.01276,0.08588 -0.135134,0.107852 -1.335813,0.19848 -1.634818,0.155135 -0.294943,-0.04882 -0.565143,-0.915627 -0.257115,-0.844368 -0.459073,-1.219075 -0.197895,-0.380188 -0.539184,-0.544025 -0.337228,-0.169317 -0.990822,-0.0722 -0.248079,0.03686 -0.555151,0.136129 0.0208,0.304103 0.069,0.628514 0.182177,1.226086 0.269444,1.583702 0.08656,0.352845 0.278346,0.495011 0.195849,0.136688 0.59324,0.08739 0.172453,-0.02077 0.183797,0.05558 0.01347,0.09064 -0.196445,0.121835 l -2.36152,0.350884 q -0.205143,0.03048 -0.218611,-0.06016 -0.01205,-0.0811 0.150156,-0.105201 0.362577,-0.05387 0.484626,-0.184157 0.126819,-0.130993 0.173896,-0.372041 0.04637,-0.245817 -0.04366,-0.851703 l -0.154103,-0.971825 -0.215708,-1.484411 q -0.168708,-1.135441 -0.275764,-1.494992 -0.102289,-0.360261 -0.249531,-0.465161 -0.14795,-0.109672 -0.626117,-0.111765 -0.102313,5.73e-4 -0.112236,-0.06621 -0.01134,-0.07633 0.18903,-0.106105 l 2.815075,-0.481663 q 1.168836,-0.173671 1.760253,0.196807 0.596186,0.369767 0.692591,1.018591 0.06096,0.410285 -0.103394,0.780908 -0.159584,0.369913 -0.427917,0.565818 -0.268332,0.195905 -0.883321,0.487202 z m -1.826548,0.144617 q 0.913151,-0.155181 1.354839,-0.332962 0.44169,-0.177778 0.70604,-0.59739 0.26912,-0.420322 0.193272,-0.930793 -0.0801,-0.539096 -0.497452,-0.886676 -0.417352,-0.347579 -1.204527,-0.230617 -0.429368,0.0638 -0.932369,0.255561 0.137685,1.320465 0.253229,2.098099 0.0397,0.267163 0.126963,0.624779 z"
         style="font-style:normal;font-variant:normal;font-weight:normal;font-stretch:normal;font-size:9.87778px;font-family:'Bell MT';-inkscape-font-specification:'Bell MT';fill:none;stroke:#000000;stroke-width:0.096169;stroke-miterlimit:4;stroke-dasharray:none;stroke-opacity:1"
         id="path874" />
    </g>
  </g>
</svg>
