<?xml version="1.0" encoding="utf-8"?>
<!-- Generator: Adobe Illustrator 26.3.1, SVG Export Plug-In . SVG Version: 6.00 Build 0)  -->
<svg version="1.1" id="Layer_1" xmlns="http://www.w3.org/2000/svg" xmlns:xlink="http://www.w3.org/1999/xlink" x="0px" y="0px"
	 viewBox="0 0 792 612" style="enable-background:new 0 0 792 612;" xml:space="preserve">
<style type="text/css">
	.st0{fill:#FFFFFF;}
</style>
<g>
	<g>
		<path class="st0" d="M2046,1581c-1099.94,0-2199.88,0-3300,0c0-849.87,0-1699.79,0-2550c1099.88,0,2199.94,0,3300,0
			C2046-119.12,2046,730.92,2046,1581z M-48.49-19.45c-1.6-1.06-3.29-2.01-4.79-3.2c-10.15-8.04-19.79-16.85-30.52-24.04
			c-13.9-9.31-27.32-19.07-39.23-30.82c-11.38-11.24-22.73-22.51-33.92-33.93c-25.65-26.19-38.97-58.52-45.56-93.89
			c-3.69-19.79-2.53-39.77-0.41-59.76c3.71-34.87,13.38-67.86,29.53-98.96c18.75-36.12,42.9-68.3,72.45-96.19
			c12.06-11.38,25.32-21.7,38.99-31.1c17.31-11.9,36.7-18.96,58.19-18.04c19.84,0.85,38,5.99,48.27,24.81
			c9.14,16.76,15.77,34.74,15.38,54.16c-0.25,12.58-2.38,25.13-3.88,37.67C50.56-347.1,33.58-306.63,2.03-272.7
			c-10.31,11.09-21.5,20.94-35.84,26.5c-9.23,3.58-13.94,2.44-20.59-4.67c-10.63-11.36-15.5-24.8-13.55-40.3
			c3.94-31.37,11.98-61.37,29.47-88.31c10.32-15.89,19.29-32.56,25.18-50.68c0.51-1.56,0.04-3.93-0.9-5.27
			c-0.58-0.83-3.17-1.03-4.44-0.5c-14.57,6.06-27.17,14.13-37.29,27.11c-25.57,32.79-39.65,69.82-44.95,110.63
			c-3.77,29.03,4.25,54.1,25.52,74.49c14.25,13.66,30.96,17.53,49.83,11.52c13.2-4.2,25.25-10.75,35.54-19.89
			c28.28-25.16,50.49-54.71,64.44-90.24c9.46-24.09,13.33-49.33,17.98-74.59c6.31-34.24,1.03-66.35-13.43-97.27
			c-10.87-23.22-28.76-38.94-53.83-45.71c-28.36-7.66-56.05-5.53-83.03,6.14c-21.99,9.5-41.21,23.25-58.83,39.18
			c-33.63,30.38-62.08,65.04-84.1,104.79c-30.68,55.4-44.58,114.66-39.08,177.85c3.76,43.24,19.17,82.6,47.49,115.58
			c27.16,31.63,56.73,61.05,92.99,82.73c5.68,3.39,11.26,7.35,15.87,12.05c18.54,18.88,27.58,42.37,29.36,68.25
			c0.97,14.17-0.88,28.57-1.83,42.84c-1.86,27.83-8.36,54.59-19.52,80.16c-4.13,9.46-8.92,18.63-12.87,28.16
			c-2.39,5.78-4.69,11.88-5.35,18.02c-1.02,9.44,6.32,14.2,14.96,10.13c3.52-1.66,6.74-4.33,9.48-7.14
			c2.99-3.08,5.5-6.71,7.83-10.35c17.42-27.19,30.46-56.19,35.71-88.27c2.31-14.13,4.18-28.33,6.03-42.52
			c4.44-34.04-0.63-66.41-17.4-96.65C-41-5.87-44.92-12.8-48.78-19.72c5.34,5.27,10.68,10.55,16.15,15.95
			c0.36-0.05,1.11,0.02,1.63-0.28c2.3-1.33,4.57-2.73,6.8-4.19c52.8-34.6,108.75-63.19,166.94-87.52
			c34.73-14.52,69.97-27.58,106.14-38.06c4.17-1.21,8.12-2.14,8.95-7.8c1.91-12.98,4.43-25.87,6.91-40.02
			C148.48-150.62,40.09-103.95-60.64-37.59c3.65,4.56,6.85,8.29,9.7,12.28C-49.73-23.64-49.28-21.42-48.49-19.45z M311.14-175.9
			l-0.16-0.14c-1.64,8.54-4.01,17-3.8,26.48c17.23-3.45,33.14-6.88,49.14-9.79c16.05-2.92,32.16-5.59,48.32-7.89
			c16.49-2.34,33.04-4.33,49.6-6.03c16.24-1.67,32.52-2.91,48.8-4.11c16.08-1.18,32.18-2.07,48.91-3.12
			c-2.18-12.22-8.78-20.79-13.15-30.33c-2.29-5-5.9-6.55-11.19-6.22c-10.64,0.66-21.34,0.53-31.95,1.43
			c-36.51,3.08-73.07,5.78-109.45,9.96c-24.71,2.84-49.16,7.92-74.12,12.06c-0.08-0.92-0.36-2.2-0.28-3.46
			c0.73-11.29,1.99-22.57,2.23-33.87c0.73-34.78-1.29-69.44-10.93-102.99c-5.68-19.79-13.89-38.85-21.08-58.2
			c-14.12-38-32.83-73.6-56.33-106.64c-20.86-29.33-41.99-58.47-62.79-87.84c-15.42-21.78-29.93-44.15-40.53-68.78
			c-7.37-17.13-14.83-34.24-21.58-51.62c-2.74-7.05-4.85-14.74-5.27-22.24c-2.16-38.65,8.99-72.94,34.99-102.07
			c11.54-12.93,25.09-22.89,41.59-28.48c12.29-4.17,24.52-8.69,37.06-11.94c8.61-2.23,17.75-3.77,26.58-3.49
			c19.29,0.62,38.59,2.04,57.77,4.21c12.19,1.38,24.41,4.05,35.09,10.79c14.94,9.42,29.97,18.72,44.5,28.73
			c5.92,4.08,11.95,9.06,15.74,15.02c31.34,49.24,35.8,99.99,7.2,152.23c-15.98,29.2-41.53,44.09-73.46,49.46
			c-18,3.02-33.07-5.12-48.29-12.91c-10.18-5.21-15.78-13.51-16.47-24.5c-0.73-11.59-1.05-23.35,0.05-34.89
			c1.42-14.89,11.35-25.09,22.19-34.37c9.45-8.09,20.21-6.31,31.35-5.38c7.3,0.61,14.83-1.51,22.24-2.59
			c0.57-0.08,0.92-1.6,1.49-2.65c-3.81-4.64-6.76-10.41-11.47-13.57c-17.01-11.41-35.61-15.78-54.75-5.91
			c-22.07,11.38-36.92,29.22-42.87,53.72c-4.39,18.09-4,36.44-1.11,54.62c3.23,20.34,14.07,35.79,32.61,45.24
			c9.19,4.68,18.56,9.08,28.1,12.97c12.9,5.26,26.52,6.88,40.26,4.88c29.07-4.23,55.41-15.02,76.56-35.86
			c30.73-30.26,44.12-68.37,47.16-110.5c1.96-27.14-4.31-53.11-14.99-77.82c-8.19-18.95-16.97-38.08-34.77-50.38
			c-19.45-13.44-39.27-26.37-59.24-39.04c-5.24-3.33-11.52-5.19-17.52-7.14c-17.24-5.61-35.22-6.77-53.11-8.72
			c-32.21-3.52-63.7-2.33-94.59,8.9c-23.94,8.71-47.46,17.69-65.91,36.29c-27.84,28.07-45.51,61.06-51.03,100.59
			c-4.07,29.2-1.56,57.1,11.83,83.69c2.09,4.15,3.53,8.63,5.26,12.96c11.9,29.79,25.73,58.56,44.27,84.89
			c19.58,27.79,38.43,56.11,58.82,83.3c26.73,35.64,50.29,72.88,66.46,114.6c13.46,34.73,28.66,68.61,32.19,106.64
			c3.3,35.51,2.96,70.32-4.32,105.32c-13.6,65.43-38.47,126.66-67.41,186.48c-17.26,35.67-34.42,71.38-51.73,107.03
			c-4.07,8.39-8.25,16.75-12.92,24.81c-7.51,12.97-15.49,25.67-23.22,38.52c-1.36,2.27-3.07,4.58-3.51,7.07
			c-0.42,2.36-0.2,5.9,1.27,7.2c1.4,1.25,5.41,1.27,7.16,0.12c4.96-3.26,9.84-6.93,13.88-11.25c15.98-17.09,30.18-35.49,41-56.43
			c25.68-49.71,52.14-99.03,77.33-148.99c14.54-28.84,26.83-58.8,35.9-89.9c6.06-20.77,11.31-41.77,17.08-62.63
			C308.36-172.35,310.01-174.05,311.14-175.9z M-520,1056.47c0.68-7.83,1.36-15.66,2.15-24.76c-8.15,2.69-15.34,4.97-22.47,7.43
			c-41.54,14.32-83.73,26.77-124.14,44.35c-31.45,13.69-62.95,27.4-95.13,39.19c-36.68,13.44-69.94,32.58-101.52,55.08
			c-4.32,3.08-8.21,6.79-12.08,10.45c-1.91,1.8-3.57,3.98-4.9,6.24c-2.43,4.16-2.14,8.35,1.1,12.02c3.02,3.42,7.05,3.85,11,2.39
			c3.07-1.14,5.91-3.02,8.66-4.85c33.19-21.99,68.11-40.49,106.1-52.86c9.18-2.99,18.19-6.48,27.31-9.66
			c47.47-16.55,94.89-33.25,142.46-49.51c17.01-5.81,34.35-10.65,51.62-15.64c5.27-1.52,7.7-4.24,7.81-9.83
			c0.06-3.48,1.46-6.94,2.26-10.42c-0.7,11.31-1.83,22.6-2.03,33.92c-1.07,62.56,15.97,119.74,51.57,171.3
			c1.26,1.83,2.25,3.84,3.37,5.77c-0.44,0.23-0.89,0.46-1.33,0.7c-4.67-6.32-9.35-12.65-14.05-19.02c-2.69,0.87-4.6,1.38-6.44,2.08
			c-60.7,23.12-121.6,45.72-181.99,69.64c-27.22,10.78-53.43,24.11-80.01,36.49c-3.85,1.79-7.57,4.32-10.58,7.29
			c-2.93,2.89-1.57,6.69,2.45,7.55c2.87,0.61,6.02,0.71,8.93,0.26c8.55-1.33,17.25-2.3,25.51-4.73
			c55.59-16.38,111.12-32.95,166.58-49.76c35.01-10.61,69.87-21.76,106.04-33.06c0.74,1.14,1.5,2.67,2.59,3.93
			c31.13,36.04,68.74,63.83,110.28,86.61c49.03,26.89,101.06,46.37,154.63,61.89c94.02,27.25,190.45,38.88,287.87,43.61
			c52.28,2.54,104.58,2.96,156.92,0.92c45.33-1.77,90.49-5.36,135.44-11.1c69.45-8.86,138.08-22.31,205.99-39.36
			c113.8-28.57,223.83-67.57,328.41-121c102.67-52.45,197.11-116.89,280.66-196.73c52.1-49.78,97.44-105.02,133.45-167.61
			c19.76-34.34,34.28-70.69,40.64-110.02c8.25-50.97-1.53-97.67-34.29-138.23c-37.7-46.68-87.24-74.35-145.27-87.52
			c-4.11-0.93-8.81-1.17-12.85-0.18c-11.49,2.83-22.73,4.31-34.49,1.08c-6.22-1.71-10.62,1.36-11.76,6.27
			c-1.02,4.4,1.49,8.33,6.93,10.69c1.21,0.53,2.52,0.86,3.8,1.21c7.03,1.89,13,5.78,17.16,11.49c6.54,8.98,15.52,14.27,24.95,19.43
			c20.74,11.35,41.48,22.74,61.75,34.91c16.37,9.82,30.61,22.44,42.84,37.22c17.47,21.13,26.27,45.3,25.9,72.78
			c-0.27,20.21-4.68,39.65-10.96,58.71c-11.69,35.49-30.51,67.29-51.56,97.82c-44.28,64.22-98.82,118.77-159.31,167.55
			c-113.18,91.26-238.86,159.96-375.94,208.12c-72.4,25.44-146.26,45.43-221.36,61.06c-84.66,17.62-170.11,29.16-256.52,32.37
			c-75.65,2.82-151.27,1.37-226.78-4.97c-54.54-4.58-108.56-12.25-161.88-24.59c-58.89-13.63-116.4-31.43-170.82-58.18
			c-39.18-19.26-75.11-43.26-105.31-75.05c-57.38-60.42-79.18-131.99-65.76-214.18c5.82-35.63,18.79-68.86,37.18-99.67
			c53.96-90.41,126.54-160.93,222.92-205.42c12.7-5.86,25.67-11.13,38.49-16.72c3.05-1.33,6.19-2.55,8.99-4.31
			c6.29-3.97,8.68-9.77,7.08-16.16c-1.49-5.93-6-10.25-13.02-10.48c-6.91-0.22-14.09,0.05-20.76,1.7
			c-38.19,9.43-73.63,25.3-106.42,47.04c-55.57,36.85-103.1,82.22-142.65,135.85c-28.68,38.9-51.71,80.83-64.89,127.63
			C-513.53,1027.29-516.51,1041.94-520,1056.47z M-101.71-7.73c-2.5,1.54-4.26,2.44-5.81,3.62
			c-40.49,30.77-77.7,64.97-109.36,104.95c-24.34,30.75-45.46,63.39-58.03,100.86c-10.33,30.78-15.24,62.34-8.06,94.45
			c11.71,52.36,44.66,86.68,93.71,106.3c37.3,14.92,76.71,19.63,116.37,21.93c70.8,4.12,141.21-0.54,211.15-12.03
			c92.49-15.18,183.4-37.22,272.94-64.82c116.5-35.92,228.08-83.88,336.83-138.69c53.6-27.01,106.04-56.05,155.31-90.51
			c5.42-3.79,10.78-8.01,15.09-12.96c15.87-18.23,33.43-34.35,54.4-46.57c1.71-1,3.41-2.15,4.8-3.55c3.4-3.42,4-8.27,1.74-11.9
			c-2.27-3.64-6.84-5.27-11.44-3.6c-2.79,1.02-5.39,2.62-7.95,4.16c-17.04,10.21-35.5,17-54.83,20.78
			c-13.28,2.6-25.67,6.99-37.55,13.09c-46.23,23.73-92.5,47.38-138.58,71.39c-65.3,34.03-130.84,67.64-199.35,94.78
			C374.08,305.58,213.8,349.24,47.16,367.44c-57.77,6.31-115.76,6.55-173.55-0.86c-20.53-2.63-40.69-7.28-59.53-16.27
			c-25.68-12.26-43.46-31.64-51.44-59.22c-5.33-18.42-3.62-37,0.37-55.41c6.75-31.17,21.71-58.56,39.64-84.5
			c28.87-41.77,64.7-76.92,103.92-108.82c4.89-3.98,9.78-7.95,15.05-12.24C-84.48,16.46-89.35,2.66-101.71-7.73z M351.29,1040.56
			c29.04-0.65,64.07-4.34,98.55-12.78c86.7-21.23,161.97-63.76,228.38-122.66c52.97-46.98,97.21-101.45,136.17-160.36
			c34.26-51.79,63.54-106.35,90.53-162.21c33.4-69.1,62.51-139.87,83.97-213.63c2.02-6.96,3.33-14.33,3.56-21.56
			c0.47-14.73,1.27-29.27,7.19-43.04c0.65-1.51,1.08-3.2,1.17-4.83c0.19-3.68-1.33-7.09-4.98-7.63c-2.51-0.37-5.61,1.03-7.94,2.47
			c-1.47,0.91-2.22,3.25-2.93,5.09c-4.97,12.98-13.22,23.7-22.23,34.1c-4.73,5.46-8.81,11.78-11.9,18.32
			c-8.67,18.37-16.79,37-24.92,55.63c-28.5,65.34-56.15,131.06-88.6,194.59c-37.4,73.22-79.99,143.08-133.89,205.56
			c-43.44,50.35-92.43,94.24-150.76,126.75c-74.72,41.64-154.37,63.2-240.54,56.84c-47.36-3.49-92.57-15.41-135.69-35.06
			C106.57,924.32,47.61,877.4-5.62,822.85c-47.05-48.23-85.48-103.09-120.15-160.56c-36.52-60.55-62.29-125.15-69.43-196.21
			c-0.43-4.3-0.66-8.69-1.68-12.86c-1.41-5.72-6.21-9.42-11.43-9.65c-5.28-0.23-10.02,2.98-12.01,8.78
			c-1.06,3.1-1.87,6.52-1.72,9.75c0.78,17.61,0.62,35.39,3.14,52.76c6.07,41.85,20.19,81.41,37.95,119.61
			c26.38,56.75,60.12,109.07,97.41,159.17c51.48,69.14,113.01,127.65,185.83,173.97C176.28,1014.66,256.83,1040.23,351.29,1040.56z
			 M656.16-473.56c13.34-18.01,0.02-37.63-15.64-42.69c-9.52-3.07-18.93-2.91-28.33,0.94c-12.83,5.26-22.95,13.94-29.83,25.62
			c-7.07,12-13.15,24.66-18.77,37.42c-14.35,32.6-7.9,62.53,13.23,89.93c19.56,25.36,57.97,35.32,88.2,18.55
			c27.37-15.18,48.35-36,62.98-63.64c17.79-33.61,29.14-69.26,35.17-106.7c4.86-30.19,2.88-59.72-7.77-88.57
			c-7.49-20.29-18.86-37.5-38.03-48.49c-10.39-5.95-20.99-11.59-31.7-16.95c-22.06-11.03-44.57-10.7-66.47-0.15
			c-20.08,9.67-39.78,20.2-59.19,31.15c-16.35,9.22-30.85,21.14-42.82,35.66c-16.94,20.55-33.87,41.15-49.85,62.46
			c-25.23,33.65-41.6,71.19-46.26,113.35c-3.49,31.52,0.43,61.29,21.76,86.57c10.09,11.96,19.81,24.31,30.81,35.38
			c17.42,17.52,34.41,35.31,48.34,55.81c8.8,12.95,17.55,25.95,26.6,38.72c9.95,14.03,16.53,29.53,21.81,45.8
			c12.49,38.49,14.08,77.81,9.34,117.58c-2.57,21.58-7.13,42.77-18.22,61.87c-21.06,36.27-46.87,68.77-77.75,97.2
			c-4.41,4.06-8.64,8.34-13.24,12.18c-4.5,3.75-9.37,7.06-14.1,10.58c4.68,5.66,6.68,6.85,11.84,5.8c3.88-0.79,7.93-1.81,11.32-3.76
			c9.22-5.29,18.66-10.43,27.07-16.86C537.66,97.5,563,68.47,584.79,36.2c10.37-15.36,17.92-32.03,22.32-49.92
			c10.47-42.62,12.08-85.77,4.1-128.89c-6.1-33-17.02-64.35-37.48-91.7c-6.58-8.8-12.45-18.12-18.66-27.2
			c-13.75-20.11-28.34-39.49-45.86-56.59c-14.55-14.21-27.84-29.52-40.03-45.9c-11.3-15.19-14.26-32.18-12.99-50.09
			c2.58-36.48,15.77-69.27,36.79-98.96c9.43-13.32,19.65-26.09,29.11-39.39c29.29-41.18,70.28-66.4,115.82-85.48
			c10.69-4.48,21.43-4.51,31.92,0.7c8.35,4.15,16.53,8.62,24.86,12.8c14.22,7.13,22.79,18.7,28.14,33.49
			c8.38,23.17,9.77,46.66,5.91,70.84c-5.52,34.53-16.19,67.26-32.73,98.07c-11.05,20.59-26.97,36.12-47.86,46.65
			c-10.36,5.22-20.5,4.71-30.71-0.13c-17.58-8.32-29.57-34.3-23.54-54.61c3.95-13.3,10.19-25.98,16.12-38.6
			c3.44-7.33,9.58-12.66,16.58-16.91c4.4-2.67,8.18-2.68,11.41,1.51C642.51-478.27,648.62-475.33,656.16-473.56z M1262.33,152.15
			c-0.3,6.61-0.32,14.3-1.03,21.92c-4.11,43.91-16.64,85.55-34.59,125.63c-23.39,52.24-52.76,101.03-87.55,146.37
			c-31.27,40.76-64.56,79.85-105.24,111.86c-2.09,1.64-4.01,3.51-5.9,5.39c-4.12,4.12-5.71,9.1-3.73,14.64
			c1.98,5.54,6.48,8.78,12.14,8.96c6.24,0.2,12.7-0.03,18.74-1.45c17.22-4.06,31.79-13.49,45.49-24.28
			c26.83-21.11,50.77-45.23,72.46-71.51c31.04-37.61,58.3-77.88,82.18-120.4c21.91-39,41.21-79.16,53.67-122.35
			c18.06-62.61,20.69-125.16,1.07-188.05c-18.55-59.47-54.03-104.87-109.29-134.28c-18.95-10.09-39.18-14.76-60.66-13.7
			c-17.18,0.85-33.48,5.42-49.28,11.94c-25.52,10.54-48.52,24.98-68.19,44.51c-7.75,7.7-13.45,16.27-14.47,27.72
			c-0.35,3.94-3.19,7.84-5.5,11.36c-3.73,5.69-4.27,10.1-0.91,13.52c3.49,3.54,7.98,3.49,13.31-1.03c3.49-2.96,6.97-5.09,11.63-4.63
			c7.96,0.79,15.12-1.69,22.01-5.31c12.09-6.35,23.99-13.13,36.34-18.91c12.63-5.91,25.48-11.55,38.68-16.01
			c15.14-5.12,30.43-3.52,44.65,3.82c30.74,15.86,55.14,38.25,70.43,69.81C1254.6,80.37,1261.94,114.92,1262.33,152.15z
			 M1331.24,665.24c5.96,6.67,10.48,11.1,14.26,16.09c9.8,12.92,23.04,23.39,29.12,38.94c2.98,7.63,7.85,9.1,15.42,8.86
			c36.29-1.14,72.59-2.23,108.9-2.37c47.63-0.19,95.28-0.04,142.89,1.01c52.94,1.17,105.86,3.61,158.79,5.23
			c7.26,0.22,14.63-0.68,21.85-1.74c33.02-4.88,66.07-8.4,99.49-4.81c3.62,0.39,7.35,0.54,10.96,0.15c5.26-0.57,8.65-4.21,9.2-9.01
			c0.56-4.88-1.83-9.08-6.75-11.04c-2.11-0.84-4.5-1.27-6.79-1.37c-29.97-1.28-58.43-9.6-86.42-19.39
			c-18-6.3-36.04-11.76-55.03-13.87c-9.27-1.03-18.51-2.26-27.77-3.37c-55.6-6.71-111.4-11.4-167.4-11.01
			c-69.27,0.48-138.53,2.44-207.79,4.12C1367.32,662.06,1350.49,663.89,1331.24,665.24z M1323.21,998.26c3.52,0,5.75,0.07,7.98-0.01
			c9.66-0.35,19.31-0.96,28.97-1.09c60.66-0.78,121.32-1.33,181.97-2.26c18.97-0.29,37.95-1.21,56.88-2.42
			c9.28-0.59,18.44-2.88,27.71-3.78c37.5-3.64,75.05-6.34,112.78-4.52c3.64,0.18,7.39,0.31,10.94-0.34c5-0.91,8.41-5.3,8.5-9.83
			c0.08-4.52-3.19-8.98-8.11-10.17c-2.87-0.7-5.95-0.55-8.93-0.72c-13.97-0.79-28.15-0.27-41.86-2.57
			c-32.49-5.47-64.75-12.32-97.12-18.53c-8.82-1.69-17.66-3.59-26.58-4.5c-67.69-6.89-135.62-9.32-203.62-10.57
			c-6.87-0.13-11.1,1.71-14.03,8.12c-5.52,12.09-11.23,24.12-17.66,35.74C1336.1,979.77,1329.93,988.04,1323.21,998.26z
			 M592.7-216.56c4.31,12.11,7.86,22.08,11.39,32.05c1.26,3.55,4.2,3.75,7.31,3.89c6.66,0.31,13.3,0.83,19.96,1.13
			c45.82,2.03,90.73,9.64,134.75,22.42c32.48,9.43,63.7,21.9,91.5,41.54c8.63,6.1,16.91,13.16,23.84,21.09
			c12.64,14.46,13.43,31.17,2.45,46.91c-5.66,8.12-12.58,15.57-19.89,22.28C841.76-4.78,815.23,8.1,786.48,16.77
			c-7.11,2.15-10.55,6.36-10.13,11.79c0.42,5.44,4.54,9.99,11.61,10.35c9.58,0.48,19.63,1.29,28.79-0.92
			c40.69-9.83,73.54-32.13,98.5-65.72c9.21-12.39,13.16-26.68,13.34-42.19c0.24-21.16-8.03-38.88-21.3-54.63
			c-15.35-18.22-35-30.62-56.27-40.7c-29.31-13.9-59.86-24.29-91.35-31.91c-36.05-8.73-72.78-12.99-109.68-15.88
			C631.77-214.48,613.5-215.31,592.7-216.56z M1134.17,554.28c5.72,0,9.28,0.08,12.83-0.01c52.98-1.36,105.96-2.6,158.93-4.18
			c19.28-0.57,38.5-1.06,57.63-5.09c29.4-6.2,59.26-9,89.41-6.56c4.98,0.4,10.01,0.63,14.98,0.36c6.03-0.32,9.68-4.03,9.9-9.21
			c0.23-5.13-3.11-9-9.02-10.2c-1.95-0.39-3.98-0.42-5.97-0.5c-35.82-1.54-70.61-9.03-105.22-17.84
			c-10.59-2.7-21.55-4.06-32.41-5.52c-6.92-0.93-13.96-1.17-20.95-1.29c-39.98-0.64-79.95-1.09-119.93-1.77
			c-5.56-0.1-9.35,2.01-12.68,6.31c-5.29,6.85-11.66,12.94-16.42,20.12C1148.01,529.83,1141.74,541.44,1134.17,554.28z
			 M-355.55,779.7c-0.33-0.53-0.65-1.07-0.98-1.6c-3.17,0.85-6.38,1.57-9.5,2.58c-24.08,7.79-48.27,15.27-72.18,23.54
			c-74.89,25.93-149.8,51.84-224.46,78.42c-37.63,13.4-74.96,27.69-111.99,42.65c-17.85,7.21-34.74,16.82-51.97,25.54
			c-2.96,1.5-6.93,2.68-6.72,8.19c6.22,1.2,12.02,0.07,17.69-1.63c27.11-8.12,54.24-16.19,81.27-24.56
			c49.62-15.36,99.2-30.84,148.75-46.39c58.77-18.45,117.46-37.18,176.31-55.39c7.87-2.43,13.08-6.67,17.87-13.1
			c7.13-9.57,15.21-18.47,23.28-27.3C-364.45,786.56-359.79,783.32-355.55,779.7z"/>
		<path d="M-519.98,1056.44c3.47-14.5,6.45-29.14,10.49-43.49c13.18-46.8,36.21-88.73,64.89-127.63
			c39.55-53.63,87.07-99,142.65-135.85c32.79-21.74,68.23-37.61,106.42-47.04c6.67-1.65,13.85-1.92,20.76-1.7
			c7.02,0.23,11.53,4.55,13.02,10.48c1.6,6.39-0.78,12.19-7.08,16.16c-2.79,1.76-5.94,2.98-8.99,4.31
			c-12.82,5.59-25.79,10.86-38.49,16.72c-96.38,44.49-168.96,115.02-222.92,205.42c-18.38,30.8-31.36,64.04-37.18,99.67
			c-13.42,82.2,8.38,153.76,65.76,214.18c30.19,31.8,66.12,55.79,105.31,75.05c54.42,26.75,111.93,44.55,170.82,58.18
			c53.32,12.34,107.35,20.01,161.88,24.59c75.51,6.35,151.13,7.79,226.78,4.97c86.4-3.22,171.86-14.76,256.52-32.37
			c75.1-15.63,148.96-35.62,221.36-61.06c137.08-48.17,262.77-116.86,375.94-208.12c60.5-48.78,115.04-103.33,159.31-167.55
			c21.05-30.54,39.87-62.33,51.56-97.82c6.28-19.07,10.69-38.5,10.96-58.71c0.37-27.48-8.43-51.65-25.9-72.78
			c-12.23-14.79-26.46-27.4-42.84-37.22c-20.27-12.16-41.01-23.56-61.75-34.91c-9.44-5.16-18.42-10.45-24.95-19.43
			c-4.16-5.71-10.13-9.6-17.16-11.49c-1.28-0.34-2.59-0.68-3.8-1.21c-5.44-2.36-7.95-6.29-6.93-10.69
			c1.14-4.91,5.54-7.98,11.76-6.27c11.76,3.23,23,1.75,34.49-1.08c4.04-0.99,8.74-0.76,12.85,0.18
			c58.03,13.17,107.57,40.84,145.27,87.52c32.76,40.57,42.54,87.26,34.29,138.23c-6.37,39.33-20.89,75.68-40.64,110.02
			c-36.01,62.6-81.36,117.83-133.45,167.61c-83.54,79.83-177.99,144.28-280.66,196.73c-104.58,53.43-214.61,92.43-328.41,121
			c-67.91,17.05-136.53,30.49-205.99,39.36c-44.96,5.74-90.11,9.33-135.44,11.1c-52.34,2.04-104.65,1.62-156.92-0.92
			c-97.42-4.73-193.85-16.36-287.87-43.61c-53.57-15.53-105.59-35.01-154.63-61.89c-41.54-22.78-79.15-50.57-110.28-86.61
			c-1.08-1.25-1.85-2.79-2.59-3.93c-36.18,11.3-71.03,22.44-106.04,33.06c-55.46,16.81-110.99,33.38-166.58,49.76
			c-8.26,2.43-16.96,3.4-25.51,4.73c-2.9,0.45-6.05,0.35-8.93-0.26c-4.02-0.85-5.39-4.66-2.45-7.55c3.01-2.97,6.74-5.5,10.58-7.29
			c26.57-12.38,52.79-25.71,80.01-36.49c60.38-23.92,121.29-46.52,181.99-69.64c1.84-0.7,3.74-1.22,6.44-2.08
			c4.71,6.37,9.38,12.7,14.05,19.02c0.44-0.23,0.89-0.46,1.33-0.7c-1.12-1.93-2.1-3.94-3.37-5.77
			c-35.6-51.56-52.64-108.73-51.57-171.3c0.19-11.31,1.33-22.61,2.03-33.92L-519.98,1056.44z"/>
		<path d="M-101.71-7.73c12.36,10.39,17.23,24.2,23.32,37.85c-5.27,4.29-10.16,8.26-15.05,12.24
			c-39.22,31.9-75.05,67.05-103.92,108.82c-17.92,25.93-32.88,53.33-39.64,84.5c-3.99,18.41-5.69,37-0.37,55.41
			c7.98,27.58,25.77,46.96,51.44,59.22c18.83,9,38.99,13.64,59.53,16.27c57.79,7.41,115.78,7.17,173.55,0.86
			c166.64-18.21,326.92-61.86,482.47-123.48c68.51-27.14,134.05-60.76,199.35-94.78c46.08-24.01,92.35-47.67,138.58-71.39
			c11.88-6.1,24.27-10.49,37.55-13.09c19.33-3.78,37.8-10.57,54.83-20.78c2.57-1.54,5.17-3.14,7.95-4.16
			c4.59-1.68,9.17-0.05,11.44,3.6c2.26,3.63,1.66,8.48-1.74,11.9c-1.39,1.4-3.09,2.55-4.8,3.55c-20.97,12.22-38.53,28.34-54.4,46.57
			c-4.31,4.95-9.67,9.17-15.09,12.96c-49.26,34.46-101.7,63.5-155.31,90.51c-108.74,54.8-220.32,102.77-336.83,138.69
			c-89.54,27.61-180.44,49.64-272.94,64.82C68.3,423.83-2.1,428.5-72.91,424.38c-39.65-2.31-79.06-7.02-116.37-21.93
			c-49.05-19.62-81.99-53.94-93.71-106.3c-7.18-32.11-2.26-63.67,8.06-94.45c12.57-37.47,33.69-70.11,58.03-100.86
			c31.66-39.98,68.87-74.18,109.36-104.95C-105.97-5.29-104.21-6.19-101.71-7.73z"/>
		<path d="M351.29,1040.56c-94.46-0.33-175.02-25.9-249-72.96C29.47,921.29-32.06,862.78-83.54,793.64
			c-37.29-50.09-71.03-102.42-97.41-159.17c-17.76-38.2-31.88-77.76-37.95-119.61c-2.52-17.38-2.36-35.16-3.14-52.76
			c-0.14-3.23,0.66-6.66,1.72-9.75c1.99-5.8,6.73-9.01,12.01-8.78c5.22,0.22,10.02,3.92,11.43,9.65c1.03,4.17,1.25,8.56,1.68,12.86
			c7.14,71.07,32.91,135.66,69.43,196.21c34.67,57.48,73.1,112.33,120.15,160.56c53.22,54.55,112.18,101.47,182.05,133.31
			c43.12,19.65,88.33,31.56,135.69,35.06c86.17,6.36,165.82-15.2,240.54-56.84c58.33-32.51,107.32-76.39,150.76-126.75
			c53.9-62.48,96.49-132.34,133.89-205.56c32.45-63.53,60.1-129.25,88.6-194.59c8.12-18.62,16.25-37.26,24.92-55.63
			c3.09-6.54,7.17-12.86,11.9-18.32c9.01-10.4,17.26-21.13,22.23-34.1c0.7-1.84,1.45-4.19,2.93-5.09c2.33-1.44,5.43-2.83,7.94-2.47
			c3.65,0.53,5.17,3.94,4.98,7.63c-0.08,1.63-0.52,3.33-1.17,4.83c-5.92,13.78-6.72,28.32-7.19,43.04
			c-0.23,7.23-1.54,14.6-3.56,21.56c-21.46,73.77-50.57,144.54-83.97,213.63c-27,55.86-56.28,110.42-90.53,162.21
			c-38.96,58.91-83.2,113.38-136.17,160.36c-66.41,58.9-141.69,101.43-228.38,122.66C415.36,1036.22,380.33,1039.9,351.29,1040.56z"
			/>
		<path d="M311.14-175.9c-1.14,1.84-2.78,3.54-3.33,5.54c-5.77,20.86-11.03,41.86-17.08,62.63c-9.06,31.1-21.36,61.06-35.9,89.9
			c-25.19,49.96-51.65,99.28-77.33,148.99c-10.82,20.94-25.01,39.34-41,56.43c-4.04,4.32-8.92,7.99-13.88,11.25
			c-1.74,1.14-5.75,1.13-7.16-0.12c-1.47-1.31-1.68-4.85-1.27-7.2c0.44-2.49,2.15-4.8,3.51-7.07c7.73-12.85,15.71-25.55,23.22-38.52
			c4.67-8.06,8.85-16.43,12.92-24.81c17.31-35.65,34.47-71.36,51.73-107.03c28.94-59.82,53.81-121.05,67.41-186.48
			c7.27-35,7.62-69.81,4.32-105.32c-3.54-38.03-18.73-71.91-32.19-106.64c-16.17-41.72-39.74-78.96-66.46-114.6
			c-20.38-27.18-39.24-55.51-58.82-83.3c-18.54-26.33-32.37-55.1-44.27-84.89c-1.73-4.33-3.17-8.81-5.26-12.96
			c-13.38-26.59-15.9-54.49-11.83-83.69c5.51-39.53,23.19-72.51,51.03-100.59c18.45-18.6,41.96-27.58,65.91-36.29
			c30.88-11.23,62.37-12.42,94.59-8.9c17.9,1.95,35.87,3.12,53.11,8.72c5.99,1.95,12.27,3.81,17.52,7.14
			c19.97,12.67,39.78,25.6,59.24,39.04c17.8,12.3,26.57,31.43,34.77,50.38c10.68,24.7,16.95,50.68,14.99,77.82
			c-3.03,42.13-16.43,80.24-47.16,110.5c-21.16,20.83-47.5,31.62-76.56,35.86c-13.74,2-27.36,0.38-40.26-4.88
			c-9.54-3.9-18.91-8.29-28.1-12.97c-18.54-9.45-29.38-24.9-32.61-45.24c-2.88-18.19-3.28-36.53,1.11-54.62
			c5.95-24.5,20.8-42.34,42.87-53.72c19.14-9.87,37.74-5.5,54.75,5.91c4.71,3.16,7.66,8.93,11.47,13.57
			c-0.56,1.05-0.92,2.57-1.49,2.65c-7.4,1.08-14.94,3.2-22.24,2.59c-11.14-0.93-21.89-2.71-31.35,5.38
			c-10.84,9.28-20.77,19.48-22.19,34.37c-1.1,11.53-0.78,23.3-0.05,34.89c0.69,10.99,6.3,19.29,16.47,24.5
			c15.22,7.78,30.29,15.93,48.29,12.91c31.93-5.37,57.48-20.26,73.46-49.46c28.6-52.24,24.13-102.99-7.2-152.23
			c-3.79-5.96-9.82-10.95-15.74-15.02c-14.54-10.01-29.56-19.31-44.5-28.73c-10.68-6.73-22.9-9.41-35.09-10.79
			c-19.18-2.17-38.48-3.59-57.77-4.21c-8.83-0.28-17.97,1.26-26.58,3.49c-12.54,3.25-24.76,7.77-37.06,11.94
			c-16.51,5.59-30.05,15.55-41.59,28.48c-26,29.13-37.15,63.42-34.99,102.07c0.42,7.51,2.53,15.19,5.27,22.24
			c6.75,17.38,14.2,34.49,21.58,51.62c10.6,24.63,25.11,47,40.53,68.78c20.8,29.37,41.93,58.51,62.79,87.84
			c23.5,33.04,42.21,68.64,56.33,106.64c7.19,19.35,15.4,38.41,21.08,58.2c9.63,33.55,11.66,68.21,10.93,102.99
			c-0.24,11.3-1.49,22.58-2.23,33.87c-0.08,1.26,0.2,2.55,0.28,3.46c24.96-4.14,49.41-9.22,74.12-12.06
			c36.39-4.18,72.94-6.88,109.45-9.96c10.61-0.9,21.31-0.76,31.95-1.43c5.28-0.33,8.89,1.22,11.19,6.22
			c4.37,9.54,10.97,18.11,13.15,30.33c-16.72,1.06-32.83,1.94-48.91,3.12c-16.28,1.2-32.57,2.44-48.8,4.11
			c-16.57,1.7-33.12,3.69-49.6,6.03c-16.15,2.29-32.26,4.97-48.32,7.89c-16,2.91-31.91,6.33-49.14,9.79
			c-0.21-9.48,2.17-17.94,3.76-26.53c0.15-3.07,0.35-6.1,0.55-9.12c-0.63,0.05-1.25,0.1-1.88,0.15
			C310.12-182,310.63-178.95,311.14-175.9z"/>
		<path d="M656.16-473.56c-7.54-1.77-13.65-4.72-18.15-10.55c-3.23-4.2-7.01-4.19-11.41-1.51c-7,4.26-13.14,9.59-16.58,16.91
			c-5.93,12.62-12.18,25.3-16.12,38.6c-6.03,20.31,5.96,46.29,23.54,54.61c10.21,4.83,20.35,5.34,30.71,0.13
			c20.9-10.53,36.81-26.06,47.86-46.65c16.54-30.81,27.21-63.54,32.73-98.07c3.86-24.18,2.48-47.67-5.91-70.84
			c-5.35-14.79-13.93-26.36-28.14-33.49c-8.33-4.18-16.52-8.65-24.86-12.8c-10.49-5.22-21.22-5.18-31.92-0.7
			c-45.54,19.08-86.53,44.3-115.82,85.48c-9.46,13.3-19.68,26.06-29.11,39.39c-21.02,29.69-34.21,62.49-36.79,98.96
			c-1.27,17.91,1.7,34.9,12.99,50.09c12.19,16.38,25.48,31.69,40.03,45.9c17.52,17.1,32.11,36.49,45.86,56.59
			c6.21,9.08,12.08,18.4,18.66,27.2c20.46,27.35,31.38,58.7,37.48,91.7c7.98,43.12,6.37,86.27-4.1,128.89
			c-4.4,17.89-11.94,34.56-22.32,49.92c-21.79,32.27-47.12,61.3-78.14,84.99c-8.41,6.43-17.85,11.57-27.07,16.86
			c-3.39,1.94-7.44,2.97-11.32,3.76c-5.17,1.05-7.16-0.14-11.84-5.8c4.72-3.52,9.59-6.83,14.1-10.58c4.6-3.83,8.83-8.11,13.24-12.18
			c30.88-28.43,56.69-60.94,77.75-97.2c11.1-19.11,15.65-40.29,18.22-61.87c4.74-39.77,3.15-79.09-9.34-117.58
			c-5.28-16.27-11.86-31.77-21.81-45.8c-9.06-12.77-17.8-25.77-26.6-38.72c-13.93-20.5-30.92-38.29-48.34-55.81
			c-11-11.07-20.73-23.42-30.81-35.38c-21.32-25.28-25.24-55.04-21.76-86.57c4.66-42.15,21.03-79.7,46.26-113.35
			c15.97-21.3,32.9-41.91,49.85-62.46c11.97-14.52,26.48-26.44,42.82-35.66c19.42-10.95,39.11-21.48,59.19-31.15
			c21.9-10.55,44.4-10.89,66.47,0.15c10.71,5.36,21.31,11,31.7,16.95c19.17,10.98,30.54,28.19,38.03,48.49
			c10.65,28.85,12.63,58.38,7.77,88.57c-6.03,37.45-17.39,73.09-35.17,106.7c-14.62,27.64-35.6,48.46-62.98,63.64
			c-30.23,16.76-68.64,6.81-88.2-18.55c-21.12-27.4-27.58-57.33-13.23-89.93c5.62-12.76,11.7-25.42,18.77-37.42
			c6.88-11.68,17.01-20.36,29.83-25.62c9.4-3.85,18.81-4.01,28.33-0.94C656.18-511.19,669.5-491.57,656.16-473.56z"/>
		<path d="M-48.81-19.74C-44.92-12.8-41-5.87-37.14,1.08c16.77,30.24,21.84,62.61,17.4,96.65c-1.85,14.2-3.72,28.4-6.03,42.52
			c-5.25,32.09-18.3,61.09-35.71,88.27c-2.33,3.64-4.83,7.27-7.83,10.35c-2.74,2.81-5.96,5.48-9.48,7.14
			c-8.64,4.08-15.97-0.69-14.96-10.13c0.66-6.14,2.96-12.24,5.35-18.02c3.95-9.53,8.74-18.7,12.87-28.16
			c11.16-25.57,17.66-52.33,19.52-80.16c0.95-14.27,2.81-28.67,1.83-42.84c-1.78-25.89-10.83-49.37-29.36-68.25
			c-4.61-4.7-10.19-8.65-15.87-12.05c-36.27-21.68-65.83-51.09-92.99-82.73c-28.32-32.99-43.73-72.34-47.49-115.58
			c-5.5-63.19,8.4-122.45,39.08-177.85c22.02-39.75,50.46-74.4,84.1-104.79c17.63-15.92,36.84-29.67,58.83-39.18
			c26.98-11.66,54.67-13.8,83.03-6.14c25.07,6.77,42.96,22.49,53.83,45.71c14.47,30.91,19.75,63.03,13.43,97.27
			c-4.66,25.26-8.53,50.5-17.98,74.59c-13.95,35.53-36.16,65.08-64.44,90.24c-10.28,9.15-22.34,15.7-35.54,19.89
			c-18.88,6.01-35.59,2.14-49.83-11.52c-21.27-20.4-29.29-45.46-25.52-74.49c5.3-40.81,19.39-77.84,44.95-110.63
			c10.12-12.99,22.73-21.06,37.29-27.11c1.27-0.53,3.85-0.33,4.44,0.5c0.94,1.34,1.4,3.72,0.9,5.27
			c-5.89,18.12-14.86,34.79-25.18,50.68c-17.49,26.94-25.53,56.94-29.47,88.31c-1.95,15.5,2.91,28.94,13.55,40.3
			c6.65,7.11,11.36,8.25,20.59,4.67c14.34-5.56,25.53-15.41,35.84-26.5c31.55-33.94,48.53-74.41,53.99-120.05
			c1.5-12.54,3.63-25.09,3.88-37.67c0.39-19.42-6.24-37.4-15.38-54.16c-10.27-18.83-28.43-23.97-48.27-24.81
			c-21.49-0.92-40.88,6.14-58.19,18.04c-13.68,9.4-26.94,19.72-38.99,31.1c-29.54,27.88-53.69,60.07-72.45,96.19
			c-16.15,31.1-25.82,64.09-29.53,98.96c-2.13,19.99-3.28,39.97,0.41,59.76c6.59,35.37,19.9,67.7,45.56,93.89
			c11.19,11.43,22.54,22.7,33.92,33.93c11.9,11.75,25.33,21.51,39.23,30.82c10.73,7.18,20.36,15.99,30.52,24.04
			c1.5,1.19,3.19,2.14,4.79,3.2L-48.81-19.74z"/>
		<path d="M1262.33,152.15c-0.4-37.22-7.73-71.78-23.55-104.44c-15.28-31.56-39.68-53.95-70.43-69.81
			c-14.22-7.34-29.51-8.93-44.65-3.82c-13.19,4.46-26.04,10.1-38.68,16.01c-12.36,5.78-24.25,12.56-36.34,18.91
			c-6.89,3.62-14.05,6.1-22.01,5.31c-4.67-0.46-8.14,1.66-11.63,4.63c-5.33,4.52-9.81,4.58-13.31,1.03
			c-3.36-3.41-2.82-7.83,0.91-13.52c2.31-3.52,5.15-7.43,5.5-11.36c1.02-11.45,6.72-20.02,14.47-27.72
			c19.66-19.53,42.66-33.97,68.19-44.51c15.8-6.53,32.1-11.09,49.28-11.94c21.49-1.06,41.72,3.62,60.66,13.7
			c55.26,29.41,90.73,74.81,109.29,134.28c19.62,62.89,16.99,125.44-1.07,188.05c-12.46,43.19-31.76,83.35-53.67,122.35
			c-23.88,42.51-51.14,82.78-82.18,120.4c-21.69,26.28-45.63,50.4-72.46,71.51c-13.7,10.79-28.27,20.22-45.49,24.28
			c-6.04,1.42-12.5,1.65-18.74,1.45c-5.67-0.18-10.17-3.42-12.14-8.96c-1.98-5.54-0.39-10.52,3.73-14.64
			c1.88-1.88,3.81-3.75,5.9-5.39c40.69-32.01,73.97-71.1,105.24-111.86c34.79-45.34,64.16-94.14,87.55-146.37
			c17.95-40.08,30.48-81.73,34.59-125.63C1262.01,166.45,1262.04,158.76,1262.33,152.15z"/>
		<path d="M1331.24,665.24c19.26-1.34,36.09-3.17,52.95-3.58c69.26-1.68,138.52-3.64,207.79-4.12c56-0.39,111.8,4.3,167.4,11.01
			c9.26,1.12,18.5,2.34,27.77,3.37c18.99,2.11,37.03,7.58,55.03,13.87c27.99,9.79,56.45,18.1,86.42,19.39
			c2.29,0.1,4.67,0.53,6.79,1.37c4.92,1.96,7.31,6.16,6.75,11.04c-0.56,4.8-3.94,8.44-9.2,9.01c-3.61,0.39-7.34,0.24-10.96-0.15
			c-33.42-3.59-66.47-0.08-99.49,4.81c-7.22,1.07-14.58,1.97-21.85,1.74c-52.93-1.62-105.85-4.06-158.79-5.23
			c-47.62-1.05-95.26-1.2-142.89-1.01c-36.3,0.14-72.61,1.24-108.9,2.37c-7.57,0.24-12.44-1.23-15.42-8.86
			c-6.09-15.56-19.32-26.02-29.12-38.94C1341.71,676.33,1337.19,671.9,1331.24,665.24z"/>
		<path d="M1323.21,998.26c6.71-10.22,12.88-18.5,17.84-27.44c6.43-11.62,12.15-23.65,17.66-35.74c2.92-6.41,7.16-8.24,14.03-8.12
			c68,1.25,135.93,3.68,203.62,10.57c8.92,0.91,17.75,2.8,26.58,4.5c32.37,6.2,64.63,13.05,97.12,18.53
			c13.71,2.31,27.89,1.79,41.86,2.57c2.99,0.17,6.07,0.02,8.93,0.72c4.91,1.19,8.19,5.66,8.11,10.17c-0.09,4.53-3.49,8.91-8.5,9.83
			c-3.55,0.65-7.3,0.52-10.94,0.34c-37.73-1.83-75.28,0.88-112.78,4.52c-9.27,0.9-18.43,3.19-27.71,3.78
			c-18.94,1.21-37.91,2.13-56.88,2.42c-60.65,0.92-121.31,1.47-181.97,2.26c-9.66,0.12-19.32,0.74-28.97,1.09
			C1328.97,998.33,1326.73,998.26,1323.21,998.26z"/>
		<path d="M592.7-216.56c20.8,1.25,39.06,2.08,57.28,3.5c36.9,2.89,73.62,7.15,109.68,15.88c31.49,7.63,62.04,18.01,91.35,31.91
			c21.27,10.09,40.92,22.49,56.27,40.7c13.27,15.75,21.54,33.47,21.3,54.63c-0.17,15.5-4.13,29.79-13.34,42.19
			c-24.96,33.59-57.81,55.89-98.5,65.72c-9.15,2.21-19.2,1.4-28.79,0.92c-7.06-0.36-11.18-4.91-11.61-10.35
			c-0.42-5.43,3.01-9.64,10.13-11.79c28.75-8.67,55.28-21.55,77.54-42.02c7.3-6.72,14.23-14.17,19.89-22.28
			c10.97-15.74,10.19-32.45-2.45-46.91c-6.94-7.93-15.21-15-23.84-21.09c-27.79-19.64-59.01-32.11-91.5-41.54
			c-44.02-12.78-88.92-20.39-134.75-22.42c-6.66-0.3-13.3-0.82-19.96-1.13c-3.11-0.14-6.05-0.34-7.31-3.89
			C600.56-194.48,597.01-204.44,592.7-216.56z"/>
		<path d="M1134.17,554.28c7.58-12.84,13.84-24.44,21.09-35.39c4.75-7.18,11.12-13.27,16.42-20.12c3.32-4.3,7.12-6.41,12.68-6.31
			c39.98,0.69,79.95,1.13,119.93,1.77c6.99,0.11,14.03,0.36,20.95,1.29c10.86,1.46,21.82,2.82,32.41,5.52
			c34.61,8.82,69.4,16.3,105.22,17.84c2,0.09,4.03,0.11,5.97,0.5c5.91,1.2,9.25,5.07,9.02,10.2c-0.23,5.18-3.88,8.89-9.9,9.21
			c-4.98,0.27-10.01,0.05-14.98-0.36c-30.15-2.44-60.01,0.36-89.41,6.56c-19.13,4.03-38.35,4.52-57.63,5.09
			c-52.97,1.58-105.95,2.82-158.93,4.18C1143.45,554.36,1139.89,554.28,1134.17,554.28z"/>
		<path d="M-48.49-19.45c-0.79-1.97-1.25-4.19-2.45-5.86c-2.85-3.98-6.06-7.71-9.7-12.28c100.72-66.36,209.12-113.03,325.38-144.04
			c-2.49,14.15-5.01,27.04-6.91,40.02c-0.83,5.67-4.79,6.6-8.95,7.8c-36.17,10.48-71.42,23.54-106.14,38.06
			C84.55-71.42,28.6-42.83-24.2-8.23c-2.23,1.46-4.5,2.85-6.8,4.19c-0.53,0.3-1.27,0.22-1.63,0.28
			c-5.47-5.4-10.81-10.68-16.16-15.96C-48.81-19.74-48.49-19.45-48.49-19.45z"/>
		<path d="M-355.55,779.7c-4.24,3.62-8.9,6.87-12.63,10.95c-8.07,8.83-16.15,17.73-23.28,27.3c-4.79,6.43-10,10.67-17.87,13.1
			c-58.85,18.21-117.54,36.94-176.31,55.39c-49.56,15.56-99.13,31.04-148.75,46.39c-27.03,8.37-54.16,16.44-81.27,24.56
			c-5.67,1.7-11.46,2.83-17.69,1.63c-0.22-5.51,3.76-6.7,6.72-8.19c17.23-8.72,34.12-18.33,51.97-25.54
			c37.03-14.96,74.37-29.25,111.99-42.65c74.66-26.58,149.57-52.49,224.46-78.42c23.91-8.28,48.1-15.75,72.18-23.54
			c3.12-1.01,6.33-1.73,9.5-2.58C-356.2,778.63-355.88,779.16-355.55,779.7z"/>
		<path d="M-519.76,1056.13c-0.8,3.47-2.2,6.93-2.26,10.42c-0.1,5.59-2.54,8.3-7.81,9.83c-17.27,4.99-34.62,9.83-51.62,15.64
			c-47.57,16.26-94.99,32.96-142.46,49.51c-9.12,3.18-18.13,6.67-27.31,9.66c-37.99,12.37-72.91,30.87-106.1,52.86
			c-2.76,1.83-5.6,3.71-8.66,4.85c-3.95,1.47-7.98,1.04-11-2.39c-3.25-3.68-3.54-7.86-1.1-12.02c1.33-2.27,2.99-4.45,4.9-6.24
			c3.87-3.65,7.77-7.37,12.08-10.45c31.58-22.51,64.84-41.64,101.52-55.08c32.18-11.79,63.68-25.51,95.13-39.19
			c40.41-17.59,82.59-30.03,124.14-44.35c7.13-2.46,14.32-4.74,22.47-7.43c-0.79,9.1-1.47,16.93-2.14,24.74
			C-519.98,1056.44-519.76,1056.13-519.76,1056.13z"/>
		<path class="st0" d="M311.14-175.9c-0.51-3.05-1.02-6.11-1.53-9.16c0.63-0.05,1.25-0.1,1.88-0.15c-0.2,3.02-0.4,6.05-0.55,9.12
			C310.98-176.04,311.14-175.9,311.14-175.9z"/>
	</g>
</g>
</svg>
