<?xml version="1.0" encoding="utf-8"?>
<!-- Generator: Adobe Illustrator 26.3.1, SVG Export Plug-In . SVG Version: 6.00 Build 0)  -->
<svg version="1.1" id="Layer_1" xmlns="http://www.w3.org/2000/svg" xmlns:xlink="http://www.w3.org/1999/xlink" x="0px" y="0px"
	 viewBox="0 0 792 415.9" style="enable-background:new 0 0 792 415.9;" xml:space="preserve">
<style type="text/css">
	.st0{fill:none;stroke:#000000;stroke-width:0.75;stroke-miterlimit:10;}
	.st1{fill:none;stroke:#010101;stroke-miterlimit:10;}
</style>
<g>
	<path class="st0" d="M101.83,150.96h-3.08l-17.04-49.32l-15.92,49.32h-3.08L40.16,78.45h10.16l14.36,49.95l15.72-49.95h3.42
		l15.53,49.85l14.6-49.85h10.16L101.83,150.96z"/>
	<path class="st0" d="M123.31,123.72c0-8.07,2.17-14.59,6.52-19.56c4.35-4.96,10.07-7.45,17.16-7.45c7.49,0,13.3,2.38,17.43,7.15
		c4.13,4.77,6.2,11.38,6.2,19.85c0,8.43-2.12,15.08-6.35,19.95s-9.99,7.3-17.28,7.3c-7.45,0-13.27-2.46-17.43-7.37
		C125.4,138.67,123.31,132.05,123.31,123.72z M133.08,123.72c0,13.12,4.64,19.68,13.92,19.68c4.33,0,7.72-1.76,10.18-5.27
		c2.46-3.52,3.69-8.32,3.69-14.4c0-12.96-4.62-19.43-13.87-19.43c-4.23,0-7.61,1.73-10.13,5.18
		C134.34,112.91,133.08,117.66,133.08,123.72z"/>
	<path class="st0" d="M208.81,106.63c-2.02-1.4-4.05-2.1-6.1-2.1c-3.29,0-6.16,1.51-8.62,4.54c-2.46,3.03-3.69,6.67-3.69,10.94
		v29.98h-9.28V97.69h9.28v8.35c3.38-6.22,8.41-9.33,15.09-9.33c1.66,0,4.05,0.29,7.18,0.88L208.81,106.63z"/>
	<path class="st0" d="M219.99,135.19V76.25h9.28v57.37c0,2.8,0.81,5,2.42,6.62s3.72,2.42,6.32,2.42v8.3
		C226,150.96,219.99,145.7,219.99,135.19z"/>
	<path class="st0" d="M281.91,149.94v-3.86c-3.22,3.22-7.91,4.83-14.06,4.83c-6.54,0-11.85-2.34-15.92-7.03
		c-4.07-4.69-6.1-10.94-6.1-18.75c0-7.84,2.34-14.54,7.03-20.09c4.69-5.55,10.27-8.33,16.75-8.33c5.4,0,9.5,1.27,12.3,3.81V76.25
		h9.28v73.68H281.91z M281.91,109.8c-2.34-3.52-5.55-5.27-9.62-5.27c-4.98,0-9.01,1.86-12.08,5.57s-4.61,8.43-4.61,14.16
		c0,12.6,5.73,18.9,17.19,18.9c1.46,0,3.22-0.46,5.27-1.39s3.34-1.91,3.86-2.95V109.8z"/>
	<path class="st0" d="M323.8,84.9c0,8.63-4.31,15.66-12.94,21.09l-3.27-4.35l3.66-3.12c1.79-1.53,2.69-3.4,2.69-5.62
		c0-1.33-0.8-2.88-2.39-4.64c-1.6-1.76-2.39-3.37-2.39-4.83c0-4.79,2.36-7.18,7.08-7.18C321.28,76.25,323.8,79.14,323.8,84.9z"/>
	<path class="st0" d="M330.88,146.86l3.27-8.79c5.18,3.39,9.34,5.08,12.5,5.08c5.73,0,8.59-2.41,8.59-7.23
		c0-3.45-2.77-6.41-8.3-8.89c-4.26-1.95-7.14-3.43-8.62-4.44c-1.48-1.01-2.77-2.16-3.86-3.44c-1.09-1.29-1.9-2.65-2.44-4.1
		s-0.81-3-0.81-4.66c0-4.3,1.56-7.65,4.69-10.06c3.12-2.41,7.21-3.61,12.26-3.61c3.81,0,8.61,1.2,14.4,3.61l-2.64,8.59
		c-3.68-2.93-7.37-4.39-11.08-4.39c-2.21,0-4.08,0.52-5.59,1.56c-1.51,1.04-2.27,2.36-2.27,3.96c0,3.35,1.9,5.89,5.71,7.62
		l6.64,3.03c4.07,1.86,7.03,3.97,8.89,6.35c1.86,2.38,2.78,5.35,2.78,8.94c0,4.69-1.64,8.36-4.93,11.01
		c-3.29,2.65-7.85,3.98-13.67,3.98C340.91,150.96,335.73,149.59,330.88,146.86z"/>
	<path class="st0" d="M43.43,233.61c0-10.35,2.6-19.01,7.79-25.98c5.19-6.97,12.2-10.45,21.02-10.45c9.93,0,17.54,3.21,22.83,9.62
		c5.29,6.41,7.93,15.35,7.93,26.81c0,11.75-2.65,20.96-7.96,27.61c-5.31,6.66-12.91,9.99-22.8,9.99c-9.02,0-16.07-3.52-21.17-10.55
		C45.98,253.63,43.43,244.61,43.43,233.61z M53.69,233.61c0,8.2,1.62,15.06,4.86,20.56c3.24,5.5,7.8,8.25,13.7,8.25
		c6.67,0,11.76-2.52,15.26-7.57c3.5-5.05,5.25-12.13,5.25-21.24c0-18.42-6.84-27.64-20.51-27.64c-6.05,0-10.66,2.47-13.82,7.42
		C55.26,218.34,53.69,225.08,53.69,233.61z"/>
	<path class="st0" d="M147.29,269.98l-16.41-26.17l-8.11,8.35v17.82h-9.28v-73.73h9.28v45.75l20.02-24.32h10.84l-16.75,19.87
		l20.46,32.42H147.29z"/>
	<path class="st0" d="M193.48,263.98c-3.71,4.66-9.39,6.98-17.04,6.98c-4.1,0-7.66-1.49-10.67-4.47c-3.01-2.98-4.52-6.68-4.52-11.11
		c0-5.31,2.32-9.79,6.96-13.45s10.55-5.49,17.75-5.49c1.95,0,4.17,0.42,6.64,1.27c0-8.46-3.78-12.7-11.33-12.7
		c-5.79,0-10.25,1.56-13.38,4.69l-3.91-7.76c1.76-1.43,4.19-2.66,7.3-3.69c3.11-1.03,6.08-1.54,8.91-1.54
		c7.58,0,13.09,1.73,16.53,5.18c3.43,3.45,5.15,8.94,5.15,16.46v18.75c0,4.59,1.37,7.65,4.1,9.18v4.64c-3.78,0-6.6-0.54-8.47-1.61
		C195.64,268.23,194.29,266.45,193.48,263.98z M192.6,244.3c-2.93-0.65-4.98-0.98-6.15-0.98c-4.69,0-8.51,1.2-11.47,3.61
		c-2.96,2.41-4.44,5.26-4.44,8.54c0,5.44,3.21,8.15,9.62,8.15c4.69,0,8.84-2.23,12.45-6.69V244.3z"/>
	<path class="st0" d="M236.45,278.87c-1.21,3.32-3.74,6.09-7.59,8.3c-3.86,2.21-8.16,3.32-12.92,3.32v-8.3
		c3.87,0,7.19-0.9,9.96-2.71c2.77-1.81,4.15-4.01,4.15-6.62c0-2.87-0.5-5.69-1.51-8.47c-1.01-2.78-2.31-6.23-3.91-10.33
		l-14.16-36.38h9.47l15.38,40.43l13.82-40.43h9.47L236.45,278.87z"/>
	<path class="st0" d="M309.84,244.74h-37.7c0,6.12,1.68,10.82,5.03,14.11c2.96,2.86,6.77,4.3,11.43,4.3c5.31,0,9.73-1.55,13.28-4.64
		l3.91,6.69c-1.43,1.43-3.63,2.67-6.59,3.71c-3.71,1.37-7.85,2.05-12.4,2.05c-6.58,0-12.16-2.23-16.75-6.69
		c-5.11-4.92-7.67-11.52-7.67-19.82c0-8.63,2.62-15.54,7.86-20.75c4.69-4.66,10.24-6.98,16.65-6.98c7.45,0,13.3,2.1,17.53,6.3
		c4.1,4.04,6.15,9.39,6.15,16.06C310.57,241.13,310.33,243.02,309.84,244.74z M287.33,224.53c-4.13,0-7.6,1.33-10.4,4
		c-2.67,2.54-4.18,5.7-4.54,9.47h28.96c0-3.74-1.17-6.87-3.52-9.38C295.25,225.89,291.75,224.53,287.33,224.53z"/>
	<path class="st0" d="M316.92,266.86l3.27-8.79c5.18,3.39,9.34,5.08,12.5,5.08c5.73,0,8.59-2.41,8.59-7.23
		c0-3.45-2.77-6.41-8.3-8.89c-4.26-1.95-7.14-3.43-8.62-4.44c-1.48-1.01-2.77-2.16-3.86-3.44c-1.09-1.29-1.9-2.65-2.44-4.1
		s-0.81-3-0.81-4.66c0-4.3,1.56-7.65,4.69-10.06s7.21-3.61,12.26-3.61c3.81,0,8.61,1.2,14.4,3.61l-2.64,8.59
		c-3.68-2.93-7.37-4.39-11.08-4.39c-2.21,0-4.08,0.52-5.59,1.56s-2.27,2.36-2.27,3.96c0,3.35,1.9,5.89,5.71,7.62l6.64,3.03
		c4.07,1.86,7.03,3.97,8.89,6.35s2.78,5.35,2.78,8.94c0,4.69-1.64,8.36-4.93,11.01c-3.29,2.65-7.85,3.98-13.67,3.98
		C326.94,270.96,321.77,269.59,316.92,266.86z"/>
	<path class="st0" d="M364.13,225.01h-6.05v-7.32h6.05v-10.94l9.28-3.56v14.5h14.36v7.32h-14.36v25.98c0,4.39,0.74,7.52,2.22,9.38
		c1.48,1.86,3.87,2.78,7.15,2.78c2.38,0,4.83-0.6,7.37-1.81l1.37,8.15c-3.84,0.98-8.06,1.46-12.65,1.46
		c-4.13,0-7.63-1.54-10.47-4.61c-2.85-3.08-4.27-6.96-4.27-11.65V225.01z"/>
	<path class="st0" d="M56.62,327.24v19.87h23.63v8.3H56.62v25.78h32.42v8.79H46.85v-71.53h42.72v8.79H56.62z"/>
	<path class="st0" d="M131.86,389.98v-30.42c0-5.57-0.84-9.46-2.51-11.69c-1.68-2.23-4.48-3.34-8.42-3.34
		c-2.12,0-4.33,0.63-6.64,1.9c-2.31,1.27-4.09,2.83-5.32,4.69v38.87h-9.28v-52.29h6.35l2.93,6.74c3.06-5.14,8.06-7.71,14.99-7.71
		c11.46,0,17.19,6.97,17.19,20.9v32.37H131.86z"/>
	<path class="st0" d="M152.42,404.29l5.03-7.42c5.4,3.61,10.38,5.42,14.94,5.42c4.2,0,7.51-0.72,9.94-2.17
		c2.42-1.45,3.64-3.25,3.64-5.4c0-4.23-3.06-6.35-9.18-6.35c-1.04,0-2.93,0.26-5.66,0.78c-2.73,0.52-4.87,0.78-6.4,0.78
		c-7.42,0-11.13-2.8-11.13-8.4c0-1.72,0.87-3.29,2.61-4.69c1.74-1.4,3.9-2.41,6.47-3.03c-7.36-3.45-11.04-9.44-11.04-17.97
		c0-5.47,1.9-10.03,5.71-13.67c3.81-3.65,8.51-5.47,14.11-5.47c5.14,0,9.16,1.06,12.06,3.17l4.64-5.57l6.05,5.71l-5.57,4.2
		c2.38,3.09,3.56,7.13,3.56,12.11c0,5.27-1.64,9.7-4.93,13.28c-3.29,3.58-7.6,5.63-12.94,6.15l-7.67,0.78
		c-0.91,0.1-2.13,0.45-3.66,1.05c-1.53,0.6-2.29,1.39-2.29,2.37c0,1.33,1.6,2,4.79,2c1.4,0,3.58-0.25,6.54-0.76
		c2.96-0.5,5.16-0.76,6.59-0.76c5.14,0,9.16,1.23,12.04,3.69c2.88,2.46,4.32,5.87,4.32,10.23c0,4.82-2.16,8.71-6.47,11.67
		c-4.31,2.96-9.78,4.44-16.38,4.44c-3.38,0-6.95-0.6-10.69-1.81C157.7,407.48,154.69,406.02,152.42,404.29z M172.09,344.18
		c-3.22,0-5.85,1.14-7.88,3.42c-2.04,2.28-3.05,5.05-3.05,8.3c0,3.65,0.98,6.67,2.96,9.06c1.97,2.39,4.63,3.59,7.98,3.59
		c3.29,0,5.86-1.16,7.71-3.49c1.86-2.33,2.78-5.38,2.78-9.16c0-3.25-1-6.02-3-8.3C177.59,345.32,175.09,344.18,172.09,344.18z"/>
	<path class="st0" d="M209.01,389.98V345.5h-7.18v-7.81h16.46v52.29H209.01z M214.09,317.91c1.59,0,2.95,0.56,4.08,1.68
		s1.68,2.47,1.68,4.03c0,1.6-0.56,2.95-1.68,4.08s-2.48,1.68-4.08,1.68c-1.56,0-2.91-0.56-4.03-1.68s-1.68-2.48-1.68-4.08
		c0-1.59,0.55-2.95,1.66-4.05C211.14,318.47,212.49,317.91,214.09,317.91z"/>
	<path class="st0" d="M265.21,389.98v-30.42c0-5.57-0.84-9.46-2.51-11.69c-1.68-2.23-4.48-3.34-8.42-3.34
		c-2.12,0-4.33,0.63-6.64,1.9c-2.31,1.27-4.09,2.83-5.32,4.69v38.87h-9.28v-52.29h6.35l2.93,6.74c3.06-5.14,8.06-7.71,14.99-7.71
		c11.46,0,17.19,6.97,17.19,20.9v32.37H265.21z"/>
	<path class="st0" d="M331.71,364.74h-37.7c0,6.12,1.68,10.82,5.03,14.11c2.96,2.87,6.77,4.3,11.43,4.3c5.31,0,9.73-1.55,13.28-4.64
		l3.91,6.69c-1.43,1.43-3.63,2.67-6.59,3.71c-3.71,1.37-7.85,2.05-12.4,2.05c-6.58,0-12.16-2.23-16.75-6.69
		c-5.11-4.92-7.67-11.52-7.67-19.82c0-8.63,2.62-15.54,7.86-20.75c4.69-4.65,10.24-6.98,16.65-6.98c7.45,0,13.3,2.1,17.53,6.3
		c4.1,4.04,6.15,9.39,6.15,16.06C332.44,361.13,332.2,363.02,331.71,364.74z M309.2,344.53c-4.13,0-7.6,1.33-10.4,4
		c-2.67,2.54-4.18,5.7-4.54,9.47h28.96c0-3.74-1.17-6.87-3.52-9.38C317.13,345.89,313.63,344.53,309.2,344.53z"/>
	<path class="st0" d="M386.25,364.74h-37.7c0,6.12,1.68,10.82,5.03,14.11c2.96,2.87,6.77,4.3,11.43,4.3c5.31,0,9.73-1.55,13.28-4.64
		l3.91,6.69c-1.43,1.43-3.63,2.67-6.59,3.71c-3.71,1.37-7.85,2.05-12.4,2.05c-6.58,0-12.16-2.23-16.75-6.69
		c-5.11-4.92-7.67-11.52-7.67-19.82c0-8.63,2.62-15.54,7.86-20.75c4.69-4.65,10.24-6.98,16.65-6.98c7.45,0,13.3,2.1,17.53,6.3
		c4.1,4.04,6.15,9.39,6.15,16.06C386.99,361.13,386.74,363.02,386.25,364.74z M363.74,344.53c-4.13,0-7.6,1.33-10.4,4
		c-2.67,2.54-4.18,5.7-4.54,9.47h28.96c0-3.74-1.17-6.87-3.52-9.38C371.67,345.89,368.17,344.53,363.74,344.53z"/>
	<path class="st0" d="M425.17,346.63c-2.02-1.4-4.05-2.1-6.1-2.1c-3.29,0-6.16,1.51-8.62,4.54c-2.46,3.03-3.69,6.67-3.69,10.94
		v29.98h-9.28v-52.29h9.28v8.35c3.38-6.22,8.41-9.33,15.09-9.33c1.66,0,4.05,0.29,7.18,0.88L425.17,346.63z"/>
	<path class="st0" d="M447.78,376.26c2.02,0,3.74,0.72,5.18,2.15c1.43,1.43,2.15,3.16,2.15,5.18c0,2.02-0.72,3.75-2.15,5.2
		c-1.43,1.45-3.16,2.17-5.18,2.17c-2.02,0-3.74-0.72-5.18-2.17c-1.43-1.45-2.15-3.18-2.15-5.2c0-2.02,0.72-3.74,2.15-5.18
		C444.03,376.98,445.76,376.26,447.78,376.26z M449.19,371.33h-3.47c-2.51-16.37-3.76-27.75-3.76-34.13v-20.02H453v19.97
		C453,343.37,451.73,354.76,449.19,371.33z"/>
</g>
<g>
	<path class="st1" d="M494.44,77.71c-0.91-11.55-1.72-22.41-2.63-33.26c-0.43-5.09,0.15-6.12,5.07-7.78
		c9.65-3.26,19.31-6.51,28.97-9.76c3.67-1.23,5.22-0.7,7.47,2.52c6.44,9.25,12.92,18.48,19.29,27.79c1.8,2.63,4.04,3.83,7.23,3.56
		c2.92-0.25,5.88-0.53,8.79-0.35c3.05,0.19,4.69-1.22,6.01-3.7c4.85-9.14,9.79-18.23,14.69-27.35c3.71-6.9,3.7-6.89,11.33-5.06
		c9.46,2.27,18.92,4.52,28.38,6.77c3.83,0.91,4.83,2.08,4.98,6.07c0.43,11.27,0.88,22.54,1.21,33.81c0.09,3.11,1.34,5.28,4.05,6.73
		c2.38,1.27,4.72,2.63,7.06,3.98c2.35,1.35,4.65,1.34,7.03,0.02c9.92-5.52,19.85-11.01,29.78-16.51c3.65-2.02,5.06-1.83,7.95,1.11
		c7.58,7.71,15.16,15.43,22.73,23.15c2.44,2.49,2.66,4.22,0.88,7.22c-5.67,9.57-11.27,19.18-17.06,28.67
		c-1.88,3.08-2.02,5.84-0.1,8.85c1.08,1.69,2.11,3.44,2.87,5.29c1.71,4.14,4.77,5.5,9.11,5.69c10.95,0.49,21.89,1.34,32.83,2.09
		c3.29,0.23,4.49,1.31,5.2,4.54c2.37,10.78,4.72,21.57,7.06,32.36c0.58,2.69-0.3,4.4-3.04,5.78c-9.86,4.96-19.69,9.99-29.64,14.78
		c-3.42,1.65-5.08,3.96-5.11,7.73c-0.02,3.16-0.31,6.33-0.54,9.48c-0.2,2.8,0.88,4.89,3.13,6.54c9.22,6.75,18.41,13.55,27.61,20.33
		c3.19,2.35,3.64,3.8,2.28,7.52c-3.5,9.57-7.01,19.14-10.51,28.71c-1.39,3.8-2.52,4.58-6.61,4.16c-10.75-1.12-21.51-2.22-32.24-3.51
		c-3.54-0.43-6.12,0.48-8.13,3.48c-2.19,3.27-4.58,6.41-6.98,9.53c-1.86,2.42-2.25,4.86-1.12,7.78c4.1,10.5,8.06,21.05,12.06,31.59
		c1.47,3.87,1.06,5.31-2.18,7.77c-7.69,5.83-15.39,11.66-23.09,17.49c-3.63,2.75-4.87,2.72-8.35-0.07
		c-8.48-6.83-17-13.61-25.44-20.49c-2.41-1.97-4.8-2.41-7.71-1.24c-4.65,1.88-9.37,3.59-14.08,5.33c-2.7,1-4.24,2.84-4.82,5.69
		c-2.26,11.04-4.62,22.06-6.94,33.09c-0.79,3.74-1.87,4.9-5.66,5.22c-9.69,0.81-19.39,1.57-29.09,2.18
		c-3.45,0.22-4.89-1.02-5.97-4.27c-3.49-10.47-7.05-20.92-10.45-31.42c-1.01-3.13-2.84-4.92-6.08-5.57
		c-5.3-1.06-10.56-2.28-15.83-3.5c-2.88-0.67-5.24-0.04-7.36,2.13c-7.76,7.96-15.61,15.85-23.43,23.76
		c-2.92,2.96-4.35,3.17-7.95,1.15c-8.21-4.61-16.42-9.23-24.63-13.86c-3.03-1.71-3.74-3.32-2.89-6.7c2.79-11,5.58-22,8.43-32.98
		c0.71-2.74,0.11-4.98-1.86-6.99c-3.89-3.98-7.78-7.95-11.56-12.03c-2.18-2.35-4.62-3.01-7.72-2.29
		c-10.9,2.52-21.83,4.94-32.76,7.38c-3.18,0.71-4.78-0.04-6.25-2.88c-4.51-8.71-9.01-17.42-13.5-26.14
		c-1.46-2.84-1.17-4.63,1.18-6.82c8.24-7.7,16.46-15.42,24.78-23.03c2.47-2.26,3.41-4.71,2.68-8.04
		c-1.09-4.97-1.93-10.01-2.78-15.03c-0.48-2.8-2-4.54-4.66-5.49c-10.53-3.8-21.06-7.58-31.54-11.51c-5.31-1.99-4.54-0.63-4.1-6.04
		c0.83-10.15,2.09-20.27,3.27-30.39c0.34-2.91,1.74-4.15,4.63-4.68c11.17-2.03,22.32-4.09,33.51-6.01c3.38-0.58,5.59-2.17,6.82-5.42
		c1.49-3.97,3.18-7.87,4.9-11.76c1.23-2.77,0.87-5.16-0.97-7.55c-6.73-8.76-13.38-17.57-20.06-26.37c-2.43-3.21-2.41-4.64,0.13-7.79
		c6.4-7.94,12.8-15.87,19.21-23.8c2.22-2.74,3.85-3.17,7.07-1.84c10.49,4.33,21,8.61,31.44,13.04c3.09,1.31,5.75,1.15,8.45-0.86
		c2.78-2.08,5.68-4.01,8.56-5.94C493.52,81.93,494.69,79.85,494.44,77.71z M461.18,207.85c-0.01,59.79,48.46,108.27,108.37,108.37
		c59.93,0.1,108.55-48.39,108.64-108.33c0.09-59.79-48.7-108.47-108.6-108.37C509.66,99.62,461.19,148.05,461.18,207.85z"/>
</g>
</svg>
